<?xml version="1.0" encoding="UTF-8"?>
<svg xmlns="http://www.w3.org/2000/svg" viewBox="0 0 431.24 643.49">
  <defs>
    <style>
      .cls-1 {
        font-family: NewRocker-Regular, NewRocker;
        font-size: 81px;
      }

      .cls-1, .cls-2, .cls-3 {
        fill: #231f20;
      }

      .cls-2 {
        font-size: 307.21px;
      }

      .cls-2, .cls-3 {
        font-family: MyriadPro-Regular, 'Myriad Pro';
      }

      .cls-4 {
        letter-spacing: 0em;
      }

      .cls-3 {
        font-size: 338.2px;
      }

      .cls-5 {
        letter-spacing: 0em;
      }

      .cls-6 {
        letter-spacing: -.01em;
      }

      .cls-7 {
        letter-spacing: 0em;
      }
    </style>
  </defs>
  <g id="Layer_1" data-name="Layer 1">
    <g>
      <path d="m161.15,466.79c.02.19.13,1.04.21,1.69.09.45.21,1.01.3,1.49,2.17,3.66,4.34,7.31,6.54,10.95,1.02.57,2.04,1.14,3.05,1.72-3.42-5.66-6.81-11.34-10.21-17.02.03.39.07.79.1,1.18Z"/>
      <path d="m262.28,521.92c0,.4,0,.8-.02,1.2.34.45.7.89,1.04,1.35.2.27.36.56.83.56.1-.65-.38-1.02-.68-1.46-.38-.55-.78-1.1-1.17-1.64Z"/>
      <path d="m160.7,456.9c5.18,9.7,10.41,19.36,15.85,28.91.99.62,1.98,1.26,2.96,1.92-6.48-11.3-12.62-22.8-18.67-34.35-.07,1.17-.12,2.35-.14,3.52Z"/>
      <path d="m169.59,385.14c-2.6-2.51-5.16-5.06-7.68-7.63.05.76.08,1.52.13,2.29,6.74,7.14,10.13,10.04,12.02,10.47-1.28-2.06-2.89-3.6-4.47-5.12Z"/>
      <path d="m171.07,393.76c.25-1.39-.49-1.78-.91-2.29-2.52-3.04-5.23-5.9-7.98-8.73.03.73.06,1.46.09,2.18,2.8,3.01,5.68,5.99,8.8,8.84Z"/>
      <path d="m165.54,364.69c-1.83-2.43-3.69-4.83-5.56-7.22.12.89.23,1.79.34,2.68,3.78,4.81,7.51,9.66,11.19,14.54.13.18.24.38.39.53.31.31.74.72,1.13.43.5-.37,0-.79-.25-1.11-2.41-3.29-4.8-6.58-7.25-9.84Z"/>
      <path d="m257.51,499.84c-.76-.56-1.5-1.13-2.14-1.8-2.23-2.29-2.04-5.31.41-7.39,3.51-2.96,10.23-3.64,14.23-1.43,2.94,1.62,5.06,5.8,4.66,9.1-.12.99-.45.73-1.02.32-3.27-2.34-6.55-4.66-9.85-6.96-.94-.65-1.9-1.27-3.06-1.61-.28.98.79,1.15.96,1.94-.73.08-1.23-.42-1.83-.56-.42-.1-1.02-.71-1.25-.07-.14.4-.8,1.06.15,1.65.93.58,1.62,1.52,2.64,2.52-1.78-.53-2.77-2.07-4.5-2,4.18,3.52,8.68,6.61,13.13,9.7-.11.39-.39.42-.66.5-.44.13-1.22-.34-1.29.3-.09.8.82.75,1.35.87,4.42,1.01,7.37-1.44,7.3-5.96-.04-2.23-.59-4.33-1.48-6.39.73-.15.82.4,1.03.73,2.5,3.94,3.24,8.13,1.8,12.64-.64,2.03.1,3.55,1.89,3.99.21-.28.44-.56.65-.84-.11.12.15-.27.46-.78-.04-.52-.1-1.03-.14-1.55-.6-.8-.73-1.98-.26-2.86-.3-3.22-.64-6.43-1.04-9.64-2.35-2.23-4.01-5.11-6.82-6.86-.23-.14-.37-.4-.26-.95,1.93.61,3.85.95,5.79,1.01-.17-.93-.34-1.86-.51-2.79-.3-.1-.6-.2-.89-.31-.11,0-.21,0-.32,0-4-.11-6.8-2.52-9.6-4.96-3.06-2.67-5.94-5.6-9.66-7.4-4.91-2.38-9.98-3.93-15.59-3.41-2.37.22-4.81-.36-7.22-.56-.87-.07-1.21-.49-1.24-1.38-.05-1.09-.17-2.21-.46-3.25-.64-2.33-2.44-3.4-4.76-2.89-1.01.22-1.56.13-1.59-1.11-.06-2.79-.2-5.57-.36-8.36-.04-.8.26-1.04,1.02-1.11.73-.06,1.54.33,2.31-.4-.54-.55-1.24-.73-1.9-.75-1.63-.05-1.63-1.17-1.6-2.3.03-1.39,1.08-1.03,1.93-1.1.91-.08,1.86.08,2.89-.38-.92-.93-2.06-.72-3.06-.95-.61-.14-1.76.27-1.63-.78.1-.83,1.09-.36,1.7-.28.92.14,1.83.33,2.75.49.33.06.71.09.83-.31.11-.37-.17-.63-.47-.77-1.11-.52-2.29-.79-3.5-.91-.88-.08-1.62-.32-1.84-1.31-.31.58-.7.94-1.45.8-.86-.16-1.74-.28-2.62-.32-.96-.04-1.31-.39-1.35-1.4-.19-6.02-.46-12.04-.72-18.07-.04-.84.29-1.24,1.12-1.27.33-.01.66-.04.99-.07q2.69-.22,3.11,2.43c.05-.27.17-.55.14-.81-.22-1.91,1-2.3,2.49-2.31.98,0,1.5-.51,1.88-1.33.64-1.4,1.29-2.8,1.43-4.37.08-.97.47-1.31,1.36-.68.09.06.19.11.29.15.59.23,1.17.81,1.82.28.48-.38.07-.84-.15-1.17-.45-.69-1-1.6-1.94-1.12-1.14.59-1.35.05-1.72-.82-.8-1.87-2.52-2.59-4.33-2.93-1.33-.24-1.65-.92-1.69-2.11-.22-6.35-.44-12.7-.77-19.04-.07-1.31.1-2.15,2.1-2.1-1.14-.57-2.1-.48-2.44-1.32.3-.68.09-1.52,1.18-1.93.94-.35.59-1.25-.11-1.84-.87-.72-1.48-2.98-1.08-3.91.2-.46.52-.48.94-.44,2.97.24,4.77,2.81,3.9,5.66-.32,1.05-.9,2.01-1.27,3.05-.28.79-1.52,1.76-.34,2.42,1.28.73,1.51-.88,2.01-1.6.71-1.04,1.2-2.22,1.41-3.5.28-1.77.14-3.15-.45-4.24-.04-.04-.09-.09-.13-.13-.4-.4-.75-.83-1.07-1.27-.66-.52-1.48-.96-2.53-1.33-.85-.3-2.16-.06-2.47-1.03-.45-1.39-.52-2.96-.19-4.38.17-.75.12-1.18-.06-1.93-.44-1.77-.34-3.68-.41-5.54-.01-.32.35-.56.73-.51.45.05.42.42.45.75.12,1.64.24,3.29.37,4.93.03.43-.04.88.49,1.53.47-1.38,0-2.58.1-3.73.03-.36-.19-.81.27-1.02.08-.04.15-.04.22-.04-.03-.15-.06-.3-.09-.46-.04,0-.07-.02-.1-.02-.52-.08-.65-2.42-.14-2.86,0,0,0,0,0,0,0-1.79.29-3.58.82-5.3,0,0,0,0,0,0-1.02-.67-1.53-1.36-1.58-2.62-.81-21.5-1.81-43-2.26-64.51-.33-15.96-.47-31.92-1.2-47.87-.88-19.18-2.09-38.36-2.93-57.54-.83-18.85-1.35-37.72-2.05-56.58-.18-4.84-.55-9.67-.77-14.51-.21-4.81-1.05-9.58.19-14.44.64-2.51.73-5.15,2.7-7.09,2.73-2.68,4.79-5.86,6.78-9.09.82-1.34,1.54-2.66.94-4.32-.22-.61-.13-1.3-.07-1.96.21-2.36.26-4.72.09-7.09-.4-5.41-1.76-10.64-2.87-15.91-1.45-6.84-2.27-13.81-4.18-20.55-.33-1.16-.18-1.79.87-2.42,2.99-1.81,5.61-4.06,7.62-6.96,4.82-6.94,3.43-15.62-3.19-19.97-.75-.5-1.44-.73-2.21-.16.08.51.48.63.79.84,4.07,2.75,5.87,6.55,5.32,11.46-.6,5.34-3.64,9.05-7.79,12.12-2,1.47-4.29,2.44-6.3,3.86-.91.65-.99,1.19.13,1.59.66.24.92.66,1.08,1.31,1.38,5.73,3.14,11.35,4.22,17.16,1.25,6.71,2.84,13.38,2.49,20.27-.24,4.76-.95,9.38-3.83,13.47-1.57,2.22-3.85,3.6-5.58,5.58-.23.27-.33.81-.84.6-.43-.18-.34-.62-.35-1.01-.06-2.19-.05-4.4-.25-6.58-.15-1.61.3-3.29-.5-4.83,0,6.44.21,12.88.51,19.32.02.52.47,1.27-.54,1.39-1.52.18-3.06-1.18-3.11-2.73-.11-3.29-.2-6.57-.32-9.86-.65-17.29-1.34-34.58-1.93-51.87-.05-1.52-.62-3.13.45-4.63,1.34-1.89.94-3.15-1.16-4.21-1.11-.56-2.3-.77-3.53-.6-1.96.27-2.56,1.67-1.49,3.32.65,1,1.69,1.53,2.54,2.29-.45.02-.61.33-.36.64.45.57,1.11.77,1.77.38,1.05-.63,1.26-.17,1.19.81-.02.32.06.66.07.98.47,13.08.95,26.16,1.42,39.24.29,8,.57,16,.87,23.99.02.48.06.9-.47,1.08-1.45.51-2.89-.49-2.96-2.05-.74-16.48-1.48-32.97-2.24-49.45-.06-1.21.13-2.15,1.04-3.1,1.65-1.72,1.22-3.59-.89-4.73-1.04-.56-2.16-.8-3.35-.69-2.92.27-4.14,2.45-2.79,5.03.34.64.69,1.76,1.51,1.44.9-.35,0-1.23-.11-1.85-.16-.92-.21-1.81.53-2.45.84-.72,1.9-.87,2.96-.54,1.01.31,1.22,1.03.81,1.95-.4.88-1.12,1.49-1.86,2.07-.63.49-.58,1.1.11,1.19,1.7.21,1.53,1.39,1.58,2.53.35,7.83.7,15.66,1.05,23.5.38,8.49.77,16.98,1.15,25.46.02.53.16,1.11-.58,1.37-2.01.71-3.21-.1-3.24-2.19-.02-1.15,0-2.31-.16-3.44-.18-1.3.26-2.67-.44-3.9-.51,2.54.17,5.06.11,7.6-.03,1.15.18,2.04-1.48,1.99-1.36-.04-2.4.08-2.42-1.85-.06-6.02-.31-12.04-.45-18.07-.05-2.08-.33-4.22.05-6.22.57-2.94-1.06-6.23-3.97-7.08-1.44-.42-2.51.19-2.84,1.67-.33,1.48-.13,2.96.25,4.4.11.43.32,1.14.93.98,1.26-.33,2.38.4,3.58.29,1.08-.1,1.4.27,1.43,1.37.17,7.66.4,15.32.62,22.98.03.87-.11,1.48-1.24,1.47-1.01-.02-1.87.08-1.96-1.32-.03-.48.34-1.25-.51-1.49.03.42.06.85.08,1.28.07,1.08.09,2.05-1.42,1.06-.96-.63-1.23.24-1.57,1.19-1.66-2.76-3.21-5.23-4.64-7.77-1.36-2.42-1.79-5.05-1.55-7.82.29-3.31,1.1-6.52,1.84-9.73,2.43-10.65,5.78-21.03,9.12-31.42,1.12-3.48,2.18-6.97,3.35-10.74-4.68,5.75-6.06,12.62-8.28,19.18-.85-.55-.15-1.56-1.2-1.82-.74,2.21-1.6,4.37-3.11,6.51,1.19-.08,1.62-.58,2.04-1.08.22-.27.51-.47.86-.32.43.18.25.56.17.85-.83,2.91-1.66,5.83-2.51,8.74-.09.31-.18.69-.59.7-.4,0-.54-.34-.62-.66-.21-.91-.76-1.58-1.46-2.15-1.47-1.21-4.5-1.34-5.35-.25-1.03,1.32-.86,3.99.33,5.23,1.61,1.67,3.51,1.83,5.46.46.36-.25.72-.69,1.15-.47.55.29.1.78,0,1.16-.61,2.57-1.23,5.14-1.9,7.7-.15.58.17,1.52-.74,1.63-.8.1-.96-.79-1.34-1.29-1.05-1.4-2.42-2.23-4.16-2.42-1.93-.21-3.46,1.01-3.65,2.96-.2,2.08.41,3.88,2.24,4.98,1.83,1.1,3.62.53,5.24-.63.36-.26.68-.73,1.12-.53.62.28.2.88.13,1.3-.76,4.72.5,8.93,3.14,12.83,1.76,2.6,3.53,5.19,5.12,7.9.3.51.46,1,.48,1.53.23,4.56.5,9.12.63,13.68.6,22.01-.09,44.02.23,66.03.23,15.74.44,31.47.67,47.21.18,12.16.42,24.32.56,36.48.21,18.05.45,36.09,1.07,54.13.22,6.34-1.6,11.8-5.5,16.65-1.42,1.77-3,3.4-5.59,3.31-1.48-.05-2.97.01-4.46.03-6.13.06-10.3-2.9-12.93-8.31-1.19-2.44-2.13-4.97-2.83-7.57-1.41-5.26-2.64-10.58-4.11-15.83-.92-3.28-1.86-6.71-4.64-8.96-1.55-1.26-1.48-2.53-.94-4.01.21-.58.15-.91-.21-1.31-1.28-1.4-4.1-1.69-5.65-.57-.69.5-.91,1.09,0,1.49,1.27.56,1.24.98.68,1.55.92.78,1.67,1.72,2.14,2.83.3.71.58,1.41.82,2.09.99,1.27,1.66,2.7,1.94,4.42-.33-.29-.65-.59-.98-.88.14.78.22,1.57.24,2.38.67.66,1.36,1.31,2.07,1.93.43.37.56.91.48,1.83-.88-.85-1.72-1.71-2.56-2.55,0,.11,0,.22-.01.34.22.71.49,1.41.79,2.12,1.61,2.04,2.95,4.27,3.63,6.98-.59.31-.79.1-.96-.12.03.13.07.25.09.38.18.98.37,1.96.55,2.94,1.71,2.73,2.47,5.82,3.76,8.8-.18-.11-.39-.18-.52-.32-.73-.82-1.44-1.65-2.17-2.48.16.99.3,1.98.43,2.97.47.47.96.92,1.49,1.34,3.12,2.43,4.61,6.06,7.27,8.82,3.93,4.08,7.58,8.43,12.35,11.61,1.4.94.57,2.03.47,3.07-.42,1.23-.94.57-1.37.07-2.35-2.69-4.69-5.4-7.02-8.11-4.25-4.94-8.57-9.81-12.93-14.64.07.67.12,1.34.17,2.02,4.36,4.9,8.68,9.83,12.88,14.87,2.36,2.83,4.61,5.75,6.9,8.63.14.17.29.34.39.53.24.45.49,1.02,0,1.34-.47.3-.76-.31-.99-.62-1.12-1.5-2.19-3.03-3.3-4.53-.35-.47-.77-1.15-1.44-.74-.6.37-.58,1.14-.38,1.81.2.7.62,1.29,1.08,1.84,1.46,1.72,2.87,3.49,4.39,5.14.96,1.04.72,2.22.4,3.58-1.29-1.75-2.59-3.49-3.87-5.25-4.53-6.22-9.27-12.26-14.17-18.17.24,1.08.48,2.16.71,3.25,5.09,6.4,10.09,12.87,15.16,19.29.27.35.52.72.85,1.01,1.97,1.75,2.38,2.87,2.01,5.92-1.71-1.79-3.37-3.43-4.92-5.17-3.96-4.44-7.87-8.94-11.72-13.48.13.82.26,1.63.39,2.45,4.13,4.89,8.29,9.76,12.42,14.65.79.94,1.63,1.78,2.73,2.36.55.29,1.41.2,1.54,1.05.17,1.14.31,2.29.39,3.45.03.38-.33.36-.61.28-.46-.12-.83-.58-1.37-.35-.22.23-.08.46.06.58,2.62,2.21,2.84,5.32,3.13,8.4.04.37.21.83-.19,1.05-.41.23-.69-.22-1.01-.4-.29-.16-.56-.37-.86-.48-.35-.12-.81-.28-1.08.05-.3.37.04.75.28,1.02.7.78,1.45,1.5,2.17,2.26.34.36.72.71.92,1.15.65,1.39.17,2.07-1.36,1.96-.15.64.38.83.75,1.08,1.11.77.82,1.87.56,2.84-.24.87-.72.24-1.1-.03-.34-.25-.72-.74-1.13-.36-.57.53.11,1,.39,1.2,2.37,1.65,1.27,3.82.92,5.86-.15.88-.62.95-1.23.3-1.24-1.33-2.49-2.64-3.74-3.97-.75-.8-1.44-1.69-2.5-2.1-.37-.15-.82-.6-1.18-.14-.38.47.15.77.42,1.1,1.93,2.35,4.04,4.52,6.41,6.42.92.74,1.35,1.52.86,2.68-.16.38.04,1-.49,1.12-.47.11-.76-.37-1.04-.7-2.58-3.08-5.33-6.02-8.11-8.92-1.31-1.37-2.61-2.75-3.92-4.12.02.85.04,1.71.06,2.56,3.82,3.97,7.84,7.76,11.72,11.68.91.92,1.06,2.94.25,3.86-.56.63-.82-.02-1.15-.31-3.85-3.43-7.5-7.06-10.76-11.05,0,.74.02,1.49.02,2.23.53.59,1.06,1.17,1.6,1.74,2.71,2.9,5.65,5.56,8.75,8.04.99.79.69,4.11-.4,4.63-.4.19-.64-.06-.84-.31-2.84-3.5-5.94-6.75-9.08-9.98,0,.69,0,1.38,0,2.06,1.7,1.68,3.41,3.35,5.12,5.03,1.21,1.2,2.42,2.4,3.6,3.63.33.34.8.67.61,1.26-.08.24-.23.54-.43.66-.31.18-.45-.16-.6-.38-.54-.76-1.08-1.53-1.64-2.27-.28-.37-.7-.72-1.12-.41-.49.37-.06.77.2,1.12.75,1.02,1.48,2.05,2.25,3.05.28.36.61.69.41,1.17-.24.58-.08,1.51-.81,1.65-.59.12-.71-.72-.99-1.16-2.03-3.21-4.35-6.21-6.72-9.17-.09.75-.22,1.48-.4,2.19,2.25,2.86,4.53,5.69,6.9,8.44,1.13,1.31.88,2.54.35,3.77-.49,1.16-.93.08-1.21-.27-2.1-2.61-4.12-5.3-6.26-7.88-.27-.33-.53-.66-.79-.99-.14.32-.3.62-.46.93.17.43.35.86.49,1.31,1.94,2.35,3.88,4.69,5.89,6.98,1.25,1.43,2.11,2.65,1.53,4.62-.2.68-.51,1.1-1.07,1.31-.77.29-.88-.48-1.13-.89-1.28-2.12-2.66-4.17-4.1-6.17.06.82.09,1.65.11,2.47,1.3,1.7,2.61,3.4,3.93,5.07.49.62.73,1.2.39,1.96-.48,1.04-.3,2.29-1.16,3.54-1.03-1.87-2.1-3.66-3.2-5.42-.02.55-.05,1.09-.08,1.64.76,1.13,1.51,2.26,2.24,3.41.71,1.13,1.08,2.16.8,3.54-.32,1.56-.3,3.19-.82,4.87-.93-1.48-1.87-2.96-2.8-4.43-.07.74-.14,1.47-.21,2.21.54.72,1.09,1.43,1.64,2.13,1.96,2.48,2.14,5.16,2.53,8.34-.71-.75-2.4-3.35-4.51-6.82-.06.71-.12,1.42-.17,2.13,1.62,2.55,3.26,5.09,4.93,7.6.49.74.94,1.48,1.25,2.32,1.88,5.24,5.09,9.46,9.73,12.58.41.28.84.5,1.04,1.01,2.78,6.9,6.46,13.36,9.93,19.91,1.32,1.21,2.51,2.49,3.65,3.92.34.43.67.87,1.01,1.3-4.25-7.94-8.34-15.97-12.32-24.07.75-.28.87.16,1.05.48,2.1,3.71,5.02,6.82,7.55,10.21.29.39.67,1,1.15.67.54-.37-.03-.88-.26-1.28-1.86-3.24-3.94-6.35-6.32-9.55,1.39-.08,2.56-.09,3.72-.23.67-.08,1.49.01,1.9-.77.16-.31.32-.62.73-.47.38.14.34.51.37.84.17,1.92.35,3.84.55,5.75.12,1.16.39,2.29.92,3.33.35.69.67,1.3-.24,1.81-.37.21-.35.53-.09.83,1.12,1.27,2.06,2.53,4.17,2.44,4.9-.22,9.78-.65,14.66-1.05.73-.06,1.23,0,1.67.67,1.68,2.57,3.48,5.06,5.32,7.51.61-.1,1.23-.2,1.84-.28-1.77-2.38-3.51-4.79-5.16-7.27-.43-.65-.26-.92.38-.98,1.92-.2,3.84-.34,5.76-.52.8-.08,1,.55,1.32,1.05,1.55,2.42,3.13,4.82,4.71,7.22.55,0,1.11,0,1.66.01-1.46-2.25-2.92-4.51-4.39-6.76-1.14-1.76-1.11-1.76,1.04-2.03,2.46-.31,4.91-.64,7.36-1,.79-.12,1.34,0,1.77.77,2.25,4.06,5.03,7.73,7.96,11.27.43.13.85.27,1.28.42.22-.01.45-.01.67-.02-2.89-3.57-5.66-7.24-7.92-11.29-.7-1.25-.72-1.82.88-2,1.4-.16,2.85-.37,3.87-1.58.15-.18.58-.35.71-.27,1.2.77,1.92,2.09,3.25,2.75.48.24.15.81.17,1.23.05,1.22.2,2.41.67,3.55,1.56,3.87,4.33,6.8,7.23,9.62.22.1.43.21.65.32-.51-.96-1.29-1.73-1.95-2.58-1.78-2.26-3.42-4.58-4.32-7.36-1.45-4.42.24-7.75,4.76-8.47,7.17-1.15,13.53,1.13,19.29,5.34-1.64-.24-3.17-.93-4.83-1.11-4.16-.45-8.02.25-11.38,2.88-2.57,2.01-3.1,4.98-1.25,7.61,2.32,3.31,5.74,4.98,9.6,5.89-1.64-1.18-3.57-1.87-5.21-3.07Zm5.14-5.18c1.84.83,3.41,2.07,4.89,3.43-2.01-.59-3.25-2.3-4.89-3.43ZM203.52,26.74c-.6.7-1.57.98-2.03,1.83,0,0,0,0,0,0-.1-.68-.65-1.49.7-1.66.47-.06.71-.68.57-1.23-.15-.58-.61-.74-1.16-.68-.42.05-.83.12-1.27-.02.96-.76,2.05-.93,3.12-.23.8.52.68,1.29.08,1.99Zm-12.07,41.59c-.81.1-1.67.31-2.29-.44-.23-.27-.1-.66.39-.59.21.03.46.27.59.21.51-.24,1.39.15,1.52-.66.12-.73-.52-1.13-1.17-1.55-.19-.02-.45-.08-.72-.08-.29,0-.68.28-.77-.24-.07-.38.05-.77.33-1.06.26-.27.6-.3.9-.1,1.2.78,2.02,1.85,2.23,3.29.1.71-.34,1.13-1.03,1.22Zm35.46,393.99c.77-.71,1.87-1.19,3-.72.71.29,1.05.93,1.06,1.7-.18.64-.6.33-.92.24-1-.27-1.97-.5-2.47.79-.13.33-.46.42-.62.13-.4-.69-.55-1.67-.05-2.13Zm-.68,1.61c0,.58-.22.92-.85.97-1.04.09-2.08.23-3.11.34-.47.05-.89,0-1.06-.54-.18-.56-.09-1.09.25-1.56.17-.23,4.1-.86,4.37-.72.48.38.42.94.41,1.49Zm-.44-10.57c.09,1.86.18,3.71.27,5.57.02.38,0,.76,0,.95-.2.73-.66.76-1.09.83q-3.86.7-4.04-3.22c-.1-2.18-.2-4.37-.31-6.55-.05-.97.19-1.49,1.38-1.41,3.63.22,3.63.17,3.8,3.83Zm-5.14,11.76c-.17.43-.57.45-.95.52-.75.12-1.5.32-2.26.37-.71.04-1.75.89-1.91-.77-.12-1.33.09-2.13,1.64-2.03.7.04,1.41-.07,2.12-.1,1.17-.05,1.86.98,1.35,2.02Zm.65-23.02c1.15.13,2.3.27,3.54.42.3.12.57.39.53.83-.05.42-.44.48-.76.46-1.15-.06-2.3-.15-3.46-.23-.54-.04-.82-.4-.81-.87,0-.58.47-.67.96-.61Zm-.87,3.4c.1-.4.36-.56.7-.54,1.25.09,2.5.22,3.75.33,1.02.56.66,1.56.65,2.34-.01.75-.76.59-1.3.54-.71-.07-1.41-.14-2.12-.22-1.47-.16-2.05-1.03-1.68-2.45Zm-.19,7.27c.09,2.4.13,4.8.29,7.2.07.99-.24,1.45-1.21,1.48-.05,0-.11.01-.16.02-1.09.14-2.29.63-3.23.32-1.07-.35-.24-1.9-.86-2.75-.04.21-.05.45-.14.64-.37.72.53,1.89-.47,2.23-1.28.44-2.71.42-4.08.29-.72-.06-.74-.74-.75-1.28-.11-3.65-.19-7.31-.31-10.96-.04-1.12.34-1.59,1.53-1.47,4.02.42,3.59-.4,3.75,3.67.08,2.16-.18,4.38.49,6.5.38-2.79-.03-5.57-.09-8.35-.03-1.12.23-1.43,1.34-1.37,3.75.19,3.76.15,3.9,3.83Zm-6.02,13.77c-1.11.29-2.25.49-3.39.61-.88.09-1.45-1.61-1-2.88.11-.41.37-.66.81-.68,1.15-.06,2.29-.12,3.44-.17.77-.03.87.47.88,1.08,0,.78.41,1.75-.74,2.05Zm-4.92.35c.04.46-3.77,1.41-4.39,1.13-.37-.16-.75-3.03-.49-3.72.21-.57,3.3-1,4.55-.49.64.82.26,2,.34,3.07Zm-5.3-16.74c.01-2.15-.05-2.16,2.03-1.99,2.8.23,2.77.23,2.83,3.15.07,3.22.14,6.45.33,9.67.06,1.05-.3,1.41-1.26,1.41-.55,0-1.11-.05-1.64.06-1.31.26-2.07-.19-2.24-1.51,0,0,0,.01.02.02.43-3.6-.09-7.2-.07-10.8Zm-1.68,13.41c1.33-.08,1.6.49,1.6,1.62-.01,3.82.5,2.98-3.04,3.9-2.7.71-2.75.67-2.81-2.19-.13-6-.17-12.01-.33-18.01-.03-1.13.22-1.42,1.36-1.33,4.23.36,4.23.32,4.38,4.63.09,2.57.2,5.14.29,7.71.01.37-.03.74.27,1.02-.23,1.23-.86,1.88-2.24,1.73-.74-.08-1.5.1-2.49.19.99,1.07,2.1.79,3.02.73Zm-5.16-29.27c.7-1.62.21-3.32.2-4.96-.02-5.82-.19-11.65-.35-17.47-.03-.97.26-1.47,1.22-1.56.49-.05.98-.12,1.47-.18,3.35-.43,2.53-.2,2.79,2.35.1.96-.23,1.56-1.28,1.74-.73.12-1.17.69-1.09,1.43.08.79.84,1.22,1.42,1.09,1.34-.3.98.61,1.05,1.22.1.8.11,1.59-.99,1.72-1.03.12-2.05.24-3.3.38.82.65,1.55.31,2.19.33,2.23.06,2.23.02,2.27,2.1.09,3.94.16,7.89.29,11.83.02.5-.13,1.08.29,1.52-.6.77.36,2.05-.58,2.51-.76.38-1.81.19-2.72.28-2.47.25-2.44.25-2.54-2.34-.03-.66.19-1.41-.34-2Zm4.81-57.41c.02-1.21.28-1.78,1.46-1.79,1.01,0,2.3-.92,2.94,0,.74,1.05.27,2.55.35,3.86,0,.05-.03.11-.05.21-.24.23-.67.45-.75.77-.21.77-1.45,1.8.45,2.21.59.13.57.74.52,1.24-.04.47-.19.86-.75.93-1.04.12-2.07.28-3.11.34-.95.06-.93-.73-.81-1.27.5-2.19-.27-4.32-.24-6.49Zm-6.55-39.59s0,.01,0,.02c.01-.05.02-.11.04-.16.38-.8-.39-2.02.45-2.47,1.06-.56,2.37-.15,3.57-.13.59.01.9.32.9.94,0,.66.04,1.32.06,1.98.13,4.11.44,3.14-3.29,3.63-1.24.16-1.56-.42-1.52-1.47.03-.79.07-1.58-.22-2.33Zm-.34-27.53c-.05-1.04.36-1.49,1.42-1.45.87.03,1.75-.07,2.61-.11.39.19.57.46.58.91.04,2.3.12,4.59.18,6.89.02.71-.31,1.08-1.06,1.19-3.46.52-3.7.31-3.64-3.18.02-1.42-.02-2.84-.08-4.25Zm-.32-7.92c.07-.26.19-.52.2-.79.1-2.86.65-3.3,3.51-2.98.76.09.92.55.95,1.11.09,2.35.15,4.7.2,7.05.02.77-.35,1.13-1.17,1.26-3.22.53-3.28.5-3.44-2.67-.05-1,.19-2.03-.25-2.99Zm-.28-22.85c-.02-.9.31-1.34,1.37-1.33,3.18.03,3.48.08,2.97,2.91-.36,1.96.49,3.73.22,5.61-.04.26.05.53.07.73-.49.79-1.24.56-1.85.58-2.65.11-2.61.39-2.59-2.29.01-2.07-.14-4.14-.19-6.21Zm-2.04-97.13c.51-1.39,1.63-1.94,3.11-1.59.68.16.68.72.69,1.15.17,4.59.29,9.18.43,13.76.02.62-.29.9-.89.93-.55.03-1.1.03-1.64.12-.86.14-1.16-.13-1.17-1.05-.05-4.1-.19-8.2-.28-12.3,0-.37.05-.74-.25-1.02Zm-.27-15.32c.4-.88.16-1.82.18-2.72.01-.81-.14-1.67,1.07-1.48.98.15,2.34-.24,2.35,1.53.01,2.5.09,5,.2,7.5.02.5-.12,1.09.31,1.52-.5,1.65-.22,3.34-.07,4.98.14,1.49-.55,1.63-1.69,1.67-1.11.03-1.97.17-1.94-1.51.08-3.54-.11-7.09-.17-10.64,0-.31.07-.63-.24-.85Zm11.67-34.68c0,3.12.13,6.25.32,9.37.06.94-.29,1.14-1.05,1.25-2.66.38-2.86.26-2.94-2.35-.17-5.37-.28-10.73-.47-16.1-.03-.8.25-.96.98-1.14,1.98-.48,3.03.22,3.3,2.19,0-.01-.01-.03-.02-.04-.58,2.26-.12,4.55-.12,6.83Zm1.28-9.15c2.23-.21,2.41-.07,2.48,2.2.16,5.19.24,10.39.6,15.57.15,2.15-1.22,1.65-2.29,1.8-1.45.21-1.19-.85-1.22-1.72-.17-5.03-.35-10.05-.54-15.08,0-.13-.09-.25-.15-.38.42-.77-.72-2.21,1.13-2.39Zm1.8,100.69c.01,1.87-.05,1.88-2.76,2.02-1.51.08-1.52-.73-1.48-1.84.05-1.24-.06-2.5-.12-4.09.73.78,1.43.72,2.1.53.83-.23,1.02-.88,1.01-1.67-.02-.82-.52-1.39-1.21-1.24-1.84.41-2.15-.52-2.09-2,0-.24-.23-.49-.35-.73.26-1.64,1.23-2.08,2.83-1.95,1.04.08,1.71.28,1.94,1.32,0,0,0-.01-.01-.01-.31,3.23.12,6.44.14,9.67Zm4.1-8.96c.23,1.49-.22,3.05.45,4.49.53-1.62.16-3.28.03-4.88-.11-1.34.4-1.49,1.44-1.48,2.61.01,2.65,0,2.78,2.74.34,7.37.62,14.75.98,22.12.05,1.13-.13,1.52-1.4,1.48-2.81-.1-2.83,0-2.94-2.72-.12-2.73-.16-5.47-.33-8.2-.07-1.1.09-1.91,1.54-2-.61-.78-1.61-.83-1.91-1.65-.65.68-3.29,1.11-3.89.64-.35-.27-.29-.65-.3-1.05-.08-2.78-.16-5.56-.32-8.34-.03-.6.21-1.3-.34-1.82.48-1.93,2.04-1.19,3.22-1.19,1.27,0,.86,1.09.98,1.86Zm5.7,138.45c-1.3.45-2.66.35-3.99.51-.74.09-.93-.28-1-.94-.32-3,.58-3.81,3.59-3.21.74.15.99.55.97,1.27-.02.81-.05,1.65.44,2.37Zm.15-12.04c1.24-.16,2.5-.3,3.75-.34.44-.01.53.5.55.89.08,1.96.1,3.91.21,5.87.05.92-.3,1.16-1.16,1-.91-.17-1.84-.24-2.9-.38-.54-.12-.65-.67-.68-1.23-.09-1.63-.14-3.26-.22-4.89-.02-.41,0-.85.46-.92Zm1.63,74.23c1.15,1.84.31,3.34-1.81,3.51-.11,0-.22.03-.33.01-.77-.13-2.03.58-2.23-.33-.24-1.03-.95-2.39.43-3.4.67-.49.4-1.33-.09-1.75-1.13-.97-.69-2.23-.8-3.37-.05-.58.26-1.06.97-1.09.33-.01.66-.14.98-.11.93.09,1.95-.58,2.77.27.31.32.3,3.54.02,4.12-.93.68-.45,1.29.09,2.14Zm-9.29,29.22c-.14-.89.7-.75,1.31-.68.66.07,1.32.12,1.97.18,1.68.17,2.5,1.64,1.81,3.22-.08.41-.37.52-.74.5-1.15-.07-2.36.04-3.44-.27-1.57-.44-.75-1.94-.9-2.95Zm3.94-1.6c-1.09-.1-2.19-.21-3.14-.3-.65-.23-.99-.54-.91-1.14.08-.59.39-.87,1.02-.78,1.09.16,2.18.28,3.27.43.68.1.9.6.87,1.19-.04.73-.61.64-1.11.6Zm-.92-3.38c-3.77-.55-3.17.16-3.28-3.55-.15-4.77-.26-9.53-.4-14.3,0-.27-.06-.54-.1-.85.18-.14.33-.3.52-.4.14-.07.32-.08.48-.08,4.76-.09,4.04-.68,4.13,3.5.11,4.61.33,9.22.51,13.82.08,2.07.07,2.14-1.87,1.85Zm-3.55,7.33c.08.51-2.88.76-4.1.32-.6-.21-1.09-2.48-.73-3.38.22-.54,3.01-.81,4.15-.19,1.33.73.51,2.15.69,3.25Zm-5.27-18.94c.03-1.97-.08-3.94-.17-5.9-.05-.99.18-1.47,1.35-1.51,3.68-.13,3.42-.41,3.48,3.19.08,4.65.24,9.29.44,13.93.05,1.11-.23,1.45-1.38,1.36-3.01-.24-3.04-.2-3.75-2.9,0,0,0,0,0,.01.43-2.72-.02-5.45.03-8.17Zm-.09-12.88c-.65-1.37-.28-2.92-.38-4.38-.01-.18.18-.51.32-.53,1.29-.21,2.59-.37,3.71-.52,1.02.46,1,3.38.16,4.1-1.32,1.11-1.3,1.47.15,2.52.95.68.59,1.7.6,2.56,0,.88-.89.58-1.43.7-.43.1-.87.1-1.31.13-1.9.13-2.68-.89-1.87-2.63.34-.73.4-1.2.05-1.95Zm4.02-25.18c.34-1.06.2-2.14.12-3.23-.06-.77.18-1.18,1.06-1.32,3.57-.56,3.76-.49,3.91,3.14.25,5.95.39,11.91.64,17.86.04.97-.34,1.29-1.2,1.35-.88.06-1.75.12-2.62.22-.83.09-1.14-.16-1.16-1.09-.1-4.97-.28-9.94-.47-14.92-.02-.67.15-1.39-.28-2.02Zm-.2-12.6c.06-.65,0-1.31,0-1.86.13-.45.34-.67.71-.71.22-.02.44-.09.65-.07,1.11.11,2.66-.92,3.21.11.67,1.26.71,2.97.12,4.45-.46,1.14-.59,2.13.14,3.23.6.92.43,1.68-.92,1.7-.71.01-1.43.04-2.12.19-1.31.29-1.91-.48-1.55-1.46.72-1.96-.39-3.73-.23-5.59Zm-.6-21.52c.28-.69.71-.76,1.16-.75,4.21.02,3.54-.63,3.72,3.27.03.74.38,1.8-.54,2.01-1.25.29-2.64.62-3.86.05-.56-.26-.35-1.17-.34-1.83.01-.98-.09-1.95-.13-2.74Zm-1.91-14.07c.4-.03.93-.04.96.39.14,1.95.18,3.91.25,5.68-.42.92-1.11.77-1.67.79-3.3.14-2.8.91-3.03-2.76-.01-.22.07-.44.05-.65-.21-3.61-.72-3.14,3.44-3.45Zm-3.53-15.12c1.06-.6,2.37-.18,3.39-.33.68.26.71.69.72,1.15.05,1.69.11,3.39.17,5.08.03.79-.3,1.16-1.14,1.25-3.34.36-3.34.38-3.49-2.88-.03-.66-.05-1.31-.02-1.97.03-.79-.42-1.85.38-2.3Zm-1.02-1.83c-.29,1-.99.85-1.55.92-3,.39-3.02.39-3.16-2.57-.06-1.31,0-2.62-.06-3.92-.04-.74.24-1.02.94-.96.05,0,.11.02.16.02,4.27-.03,3.31-.71,3.62,3.28.09,1.14.04,2.29.06,3.23Zm-.03-20.36c-.05-1.59.02-3.19-.15-4.76-.11-1.06.26-1.36,1.21-1.45,3.25-.29,3.24-.31,3.32,2.94.02.61-.06,1.27.29,1.84-.44.95-.15,1.94-.1,2.91.05.89-.23,1.26-1.17,1.38-3.29.41-3.29.45-3.4-2.86Zm.43-23.14c-.41-.23-.88-.3-1.04-.93-.44-1.7,0-2.38,1.78-2.5.38-.03.77-.05,1.15-.12.97-.17,1.38.15,1.45,1.2.07,1.16-.21,2.35.25,3.48,0,0,0-.01,0-.02-.32,1.25-.07,2.52-.04,3.76.03.95-.23,1.35-1.16,1.31-.16,0-.33.02-.49.03-2.72.16-3.41-.69-2.83-3.41.1-.46.28-.68.72-.75.44-.07,1.11.22,1.12-.58,0-.63-.31-1.14-.9-1.47Zm2.88-34.39c.11-1.24-.09-2.5-.08-3.75,0-.64-.54-1.57.5-1.82,1.1-.26,2.26-.43,3.38-.09.51.15.34.73.36,1.16.09,2.61.17,5.22.28,7.83.03.67-.1,1.36.28,1.98-.56.64-3.51,1.34-4.15.96-.51-.3-.38-.87-.43-1.32-.1-.89.16-1.82-.41-2.63.75-.68.22-1.55.28-2.31Zm5.85,39.4s0,0-.01,0c-.58.6-3.55,1.33-4.21.99-.51-.26-.47-.79-.52-1.27-.12-1.18.26-2.42-.38-3.55.53-1.2.23-2.47.18-3.7-.04-.9.29-1.13,1.08-1.23,3.26-.4,3.28-.32,3.47,3,.11,1.92-.16,3.88.39,5.77Zm-.07,20.32c-1.2.29-2.48.69-3.7.23-.51-.19-.4-.96-.41-1.49-.01-.79.2-1.59-.28-2.32.45-1.16.14-2.37.11-3.54-.03-.98.22-1.34,1.24-1.41,3.28-.21,3.29-.25,3.44,3.06.06,1.25.08,2.51.05,3.76-.01.6.45,1.49-.45,1.71Zm-3.39,22.48c-.16-2.89-.16-2.82,2.73-2.96,1.43-.07,1.98.4,1.95,1.83-.03,1.63.09,3.27.13,4.71-.2.67-.63.65-.99.73-3.31.71-3.75.36-3.81-3.01,0-.43.02-.87,0-1.3Zm4.46-6.42c-.12.76.49,1.83-.4,2.24-1.13.52-2.45.36-3.69.25-.46-.04-.47-.47-.49-.88-.02-.61.08-1.25-.25-1.82.37-.96.16-1.94.08-2.91-.09-1.09.25-1.58,1.41-1.67,3.06-.23,3.05-.28,3.3,2.74.04.46-.11.97.31,1.33-.09.24-.22.47-.26.72Zm-1.46-5.97c-3.34.49-3.36.5-3.46-2.85-.04-1.42-.11-2.83-.15-4.24-.01-.38.05-.77.08-1.16.35-.56.94-.51,1.47-.53,3.26-.12,3.02-.88,3.16,2.68.06,1.52.07,3.05.16,4.57.06.96-.29,1.38-1.26,1.52Zm-.53-19.81c-3.39.38-3.38.4-3.48-2.92-.04-1.47-.02-2.94-.15-4.4-.08-.9.21-1.2,1.06-1.2.98,0,1.96-.02,2.89-.04.49.29.6.71.61,1.16.06,2.07.05,4.14.18,6.21.06.92-.3,1.1-1.1,1.19Zm-.81-20.67c-3.26.45-3.25.46-3.28-2.85-.02-1.92.02-3.84-.19-5.74-.13-1.23.41-1.44,1.36-1.47.87-.03,1.75-.06,2.54-.09.57.22.47.65.48,1.01.09,2.62.11,5.25.29,7.86.07,1.04-.42,1.17-1.2,1.28Zm-3.61-12.17c-.06-2.79-.14-5.58-.26-8.37-.04-.89.24-1.37,1.17-1.36.11,0,.22,0,.33-.02q2.86-.19,2.98,2.65c.08,2.08.16,4.16.23,6.23.01.44-.02.88-.04,1.3-.22.39-.58.52-.97.55-.71.06-1.43.07-2.14.18-.95.14-1.29-.27-1.31-1.17Zm4.3-11.83c.53-1.82.03-3.66.08-5.5.04-1.47-.15-2.95-.18-4.43-.04-2.11,1.7-1.17,2.67-1.44.88-.24,1.37.12,1.39,1.21.05,3.17.2,6.34.37,9.51.04.8-.24,1.17-.99,1.15-1.14-.02-2.38.57-3.35-.51Zm2.85-12.81c-.66.08-1.32.1-1.97.21-.71.12-1.03-.14-1.06-.85-.12-3.61-.23-7.22-.38-10.83-.01-.36-.05-.76.32-.83,1.02-.2,2.05-.3,3-.44.55.28.63.69.65,1.15.14,3.45.27,6.9.43,10.35.03.75-.27,1.15-1,1.24Zm-7.87,16.26c.03,2.85.12,5.7.29,8.54.05.9-.26,1.14-1.06,1.26-3.35.49-3.34.51-3.41-2.87-.04-2.08-.1-4.16-.15-6.24,0-.44,0-.87,0-1,.16-.78.51-.88.93-.88.77,0,1.54-.02,2.31-.03.85-.01,1.09.38,1.1,1.23Zm-2.85,10.82c3.29-.04,3.17-1.02,3.24,2.93.03,1.92.11,3.83.17,5.74,0,.27.06.54.09.74-.18.53-.59.54-.96.6-3.18.52-3.49.25-3.56-2.99-.04-1.86-.07-3.72-.17-5.58-.05-.91.16-1.44,1.2-1.45Zm-.23,22.3c1.07-.41,2.36-.24,3.32-.31.68.25.79.64.8,1.02.06,2.23.06,4.47.15,6.7.03.68-.31.85-.84.96-3.17.67-3.61.33-3.67-2.85-.02-1.09-.05-2.18-.05-3.27,0-.79-.5-1.96.29-2.26Zm1.42,19.47c3.13-.28,3.13-.32,3.27,2.93.07,1.75.13,3.5.19,5.09-.18.56-.47.74-.88.84-2.99.73-3.61.27-3.71-2.81-.05-1.53-.06-3.06-.13-4.59-.04-.92.25-1.38,1.27-1.48Zm2.32,9.79c.84-.06,1.13.18,1.23,1.06.12,1.1-.33,2.27.36,3.3-.24.33-.33.7-.25,1.08.33,1.52-.43,1.88-1.79,1.92-2.64.07-2.64.12-2.73-2.46-.02-.49,0-.98-.03-1.47-.26-3.95-.3-3.19,3.2-3.43Zm-1.58,16.77c2.81,0,2.83-.04,3.59,2.67,0,0,0,0-.01-.01-.06.15-.12.3-.17.46-.28.81.47,1.88-.38,2.47-.92.64-2.12.36-3.19.51-.64.09-1.01-.21-1.01-.94,0-1.3-.09-2.61-.12-3.91-.02-.87.36-1.24,1.3-1.24Zm-.86,15.32c.19-.46,3.26-.84,4.03-.5.52.23.92,3.19.54,4-.19.41-3.38.95-4,.69-.46-.2-.89-3.41-.57-4.18Zm4.72-11.09c0-.49.19-1.08-.24-1.53.55-2.83.56-2.81,3.57-2.72.89.03,1.35.32,1.33,1.23,0,.27,0,.55,0,.82.15,3.3.15,3.25-3.09,3.57-1.18.12-1.59-.2-1.58-1.38Zm.62,2.61c1.2-.15,2.4-.23,3.42-.32.8.14.75.68.79,1.07.09.82.07,1.64.1,2.47.15,3.56-.1,3.8-3.64,3.59-.7-.04-1-.28-1.01-.97-.04-1.64-.12-3.28-.17-4.92-.01-.39.04-.86.51-.92Zm-.19,8.43c.2-.46,3.47-.89,4.17-.54.46.23.87,2.96.55,3.72-.2.48-3.34,1.09-4.16.81-.52-.18-.94-3.11-.57-3.98Zm.33,12.15c.19-.48,3.31-.9,4.18-.57.55.21.95,2.73.58,3.65-.24.59-3.19,1.23-4.11.89-.53-.2-1-3.08-.65-3.97Zm.19,6.04c-.01-.68.43-.93,1.09-.91.38.02.77-.02,1.14-.09,1.58-.27,2.89-.21,2.59,1.98-.01.08.16.18.28.27-.7.88-3.97,1.79-4.7,1.19-.77-.63-.39-1.62-.4-2.45Zm4.54,4.44c-1.24.51-2.59.39-3.89.54-.23.03-.44-.12-.4-.38.02-.14.16-.36.26-.36,1.34-.1,2.68-.18,4.02-.25,0,.15.01.31.02.46Zm5.97,9.79c.16.89-.18,1.35-1.15,1.34-.82,0-1.65.13-2.47.12-.91-.01-1.47-.95-1.04-1.81,2.1-.97.66-1.86,0-3.08-.69-1.27-.25-2.89-.3-4.35-.01-.31.35-.36.61-.44,2.92-.94,4.16-.12,4.18,2.86,0,1.79-.16,3.58.16,5.35Zm.14-15.66c1.32-.47,2.74-.66,3.98-.94.47.21.51.49.54.76.03.38-.21.63-.52.76-1.02.4-2.05.79-3.08,1.15-.34.12-.8.33-.96-.22-.15-.5-.49-1.32.05-1.51Zm-5.48,2.7c.33-2.49.34-2.52,3.1-2.67.61-.03,1.46-.48,1.68.67.2,1.05-.16,1.78-1.23,1.89-1.17.12-2.35,1.42-3.55.1Zm.44,46.02c1.28.74.84,1.93.72,2.93-.12,1.01-1.14.56-1.77.73-.21.05-.44.01-.66.03-2.69.14-3.17-.58-2.02-3.15.35-.63.45-1.27-.14-2.02-.93-1.18-.39-2.64-.52-3.97-.04-.43.43-.57.84-.62.49-.05.99-.19,1.47-.16.87.07,2.19-.8,2.5.31.32,1.14.89,2.62-.61,3.73-.75.56-.86,1.58.2,2.18Zm-4.03,26.02c-.09.49-.33.79-.89.74-1.04-.1-2.08-.15-3.11-.26-.58-.06-.87-.43-.79-1.03.08-.53.38-.73.92-.7,1.09.07,2.19.1,3.08.14.66.28.89.61.8,1.12Zm8.74-34.41c-.11,0-.22.04-.33.04-3.85.2-3.37,1.05-3.48-3.05-.15-5.58-.39-11.15-.59-16.72q-.08-2.28,2.24-2.39c.66-.03,1.31-.09,1.88-.13.58.25.59.65.61,1.13.25,6.6.53,13.21.79,19.81.03.74-.22,1.3-1.11,1.3Zm.26-35.99c.65-.77,1.56-.91,2.32-1.29,2.52-1.26,2.45-1.24,2.55,1.59.05,1.25-.34,1.55-1.48,1.36-.8-.13-1.63-.14-2.45-.17-1.13-.04-.85-.87-.95-1.49Zm4.59-6.97c-.02.11,0,.26-.07.31-1.27.93-2.72.22-4.08.44-.81.13-.6-.68-.73-1.17-.12-.45.15-.98-.24-1.37.09-.81.48-1.28,1.37-1.25.27.01.54-.06.82-.09,2.74-.31,3.39.38,2.94,3.13Zm-5.09,7.65c.1.38-.13.7-.48.73-1.14.1-2.29.15-3.44.18-.16,0-.35-.22-.46-.38-.04-.05.11-.33.21-.36,1.23-.28,2.46-.54,3.78-.82.13.2.33.4.39.64Zm-.17-9.35c-.53,2.85-.68,2.96-3.66,3.12-.78.04-1.15-.17-1.1-.99.02-.22-.1-.46-.04-.65.25-.81-.73-1.96.61-2.45,1.45-.53,3.49-.08,4.26.86-.04.04-.08.07-.09.11Zm-.29-5.37c-.38,2.69-.72,2.99-3.46,3.08-.8.03-1.27-.21-1.2-1.11.03-.38-.01-.76-.01-1.14,0-2.97,0-2.91,2.86-3.18,1.2-.11,1.79.14,1.69,1.41-.02.26.04.5.25.68-.05.09-.12.17-.13.26Zm-4.07-8.93c-.42-.04-.88-.13-.91-.53-.14-1.96-.2-3.93-.29-5.9.09-.4.41-.46.74-.54,2.86-.75,3.76-.11,3.88,2.79.01.33.09.65.1.98.09,3.28-.19,3.52-3.53,3.2Zm-.83-8.41c-.32-.16-.43-.43-.44-.81,0-.76-.01-1.52-.12-2.27-.2-1.44.16-2.16,1.83-2.21,2.48-.08,2.47-.2,2.75,2.24.05.41,0,.85.29,1.19-.42,1.35-3.07,2.49-4.32,1.85Zm1.85-6.76c-2.5.27-2.51.25-2.57-2.22-.03-1.14.05-2.3-.11-3.43-.15-1.12.38-1.34,1.29-1.36,3.36-.07,3.1-.98,3.26,2.92.05,1.14.06,2.28.08,3.34-.49.86-1.28.68-1.95.75Zm-.58-8.21c-2.94.65-1.91-1.71-2.48-2.87.3-.97.19-1.96.09-2.92-.11-1.02.33-1.35,1.27-1.46,3.14-.36,3.14-.38,3.23,2.82.02.6.02,1.2.06,1.79.14,2.34.1,2.13-2.18,2.64Zm1.91-9.37c-.15.54-.56.54-.94.62-3.33.71-3.49.59-3.6-2.72-.05-1.42-.07-2.84-.13-4.26-.04-1.01.34-1.55,1.42-1.5.55.02,1.1,0,1.64-.06.89-.11,1.36.21,1.39,1.13.07,2.13.16,4.26.24,6.38,0,.16-.02.33-.02.42Zm-1.51-9.11c-3.24.4-3.24.42-3.31-2.85-.03-1.42-.07-2.85-.1-4.27,0-.27-.01-.54-.02-.79.35-.65.95-.48,1.48-.52q2.9-.22,2.94,2.65c.02,1.48-.03,2.96.12,4.42.09.95-.21,1.25-1.1,1.36Zm-.09-9.65c-.77.03-1.53.02-2.3.06-.85.04-1.18-.43-1.21-1.2-.05-1.96-.01-3.93-.18-5.88-.1-1.22.37-1.55,1.46-1.5.76.03,1.53-.04,2.17-.06.61.18.58.58.59.97.09,2.24.16,4.47.3,6.71.04.68-.27.89-.84.91Zm-.05-10.18c-1.29.32-2.75.84-4.03-.22.59-2.21-.09-4.43.06-6.64.05-.73-.44-1.73.31-2.12,1.02-.52,2.38-.58,3.36-.16,1.1.47.42,1.87.55,2.85.09.7-.57.59-1.08.58-.9-.01-1.53.41-1.41,1.4.1.87.47,1.73,1.57,1.43.77-.21,1.12.03,1.09.68-.03.76.61,1.94-.43,2.19Zm.49-13.75c-.1-1.96-.13-3.93-.19-5.9,0-.27-.04-.54-.06-.8.67-.74,1.57-.51,2.34-.64,2.03-.34,2.01-.3,2.09,1.81.09,2.46.2,4.91.34,7.36.06,1.11-.23,1.55-1.5,1.35-2.85-.44-2.88-.36-3.02-3.19Zm2.62-8.43c-.49-.05-.99-.02-1.48.03-1.04.11-1.5-.3-1.53-1.39-.05-2.57-.18-5.15-.3-7.72-.04-.88.29-1.34,1.21-1.39.88-.04,1.75-.15,2.54-.22.52.33.58.78.61,1.21.13,2.68.23,5.37.37,8.06.05,1.04-.33,1.52-1.41,1.41Zm-3.03,10.24c.05.91-.32,1.2-1.12,1.21-.22,0-.44.05-.66.06-2.46.22-2.45.22-2.51-2.23-.04-1.91.02-3.84-.21-5.74-.2-1.7.51-2.15,2.01-2.06.54.04,1.09-.07,1.62-.11.52.32.55.79.57,1.3.08,2.51.14,5.03.3,7.54Zm-1.17-10.02c-.11.03-.22.01-.33.03-2.96.51-2.97.51-3.12-2.47-.1-2.08-.13-4.16-.29-6.23-.09-1.24.24-1.87,1.59-1.76.65.05,1.31-.06,1.77-.08.61.23.74.51.76.97.1,2.85.21,5.7.39,8.55.04.69-.26.88-.78,1.01Zm-7.23-52.85c-2.66.09-2.66.13-2.72-2.47-.08-3.44-.1-6.88-.27-10.31-.06-1.19.23-1.59,1.42-1.44.7.09,1.42,0,2.06-.02.58.23.59.63.61,1.1.14,3.87.3,7.75.47,11.62.05,1.15-.5,1.48-1.57,1.52Zm-.18-25.76c-.47-1.06-1.1-1.69-2.28-.94-.87.55-.94-.14-.99-.66-.08-.76.02-1.54-.07-2.3-.17-1.36.34-1.86,1.73-1.86,2.26,0,2.23-.08,2.37,2.22.09,1.5-.13,3.04.46,4.5-.6,2.19-.06,4.41-.08,6.61-.03,2.52-.7,3.16-3.28,2.65-.51-.1-.81-.35-.83-.85-.06-1.8-.1-3.6-.15-5.4-.03-.85.56-.87,1.19-1.03,2.04-.5,2.6-1.42,1.94-2.94Zm-.52-34.59c.26.4.13.97.55,1.3-.5,2.27-.05,4.55.02,6.82.08,2.45.13,2.4-2.32,2.54-1.19.07-1.7-.26-1.7-1.54,0-2.6-.14-5.2-.23-7.93,2.16,1.68,2.5,1.56,3.68-1.2Zm-3.77-1.48c-.05-1.69-.05-3.38-.11-5.07-.02-.51.25-.75.65-.77.87-.06,1.75-.06,2.62-.04.37,0,.64.33.63.65-.06,2.2.48,4.41-.03,6.6-.94-.62-1.73-1.73-3.11-.7-.38.28-.63-.29-.65-.68Zm1.64,13.3c.44.04.89.05,1.32-.01,1.15-.16,1.48.24,1.5,1.45.06,4.22.29,8.43.46,12.65.02.44-.01.88-.02,1.31-.12.47-.48.55-.89.57-.6.03-1.22,0-1.81.1-1.02.16-1.33-.21-1.35-1.24-.08-4.55-.2-9.09-.4-13.63-.05-1.03.29-1.28,1.2-1.2Zm4.28,31.37c-.13-2.54.09-5.11-.4-7.63,0,0,0,.02,0,.03.29-1.85.08-3.71-.02-5.56-.06-1.09.42-1.45,1.35-1.27.86.16,2.3-.83,2.38,1.02.22,4.6.37,9.2.58,13.8.03.77-.22,1.15-1.02,1.1-.44-.03-.9-.1-1.32-.01-1.25.25-1.51-.43-1.56-1.46Zm1.12-15.58c-.85.09-1.64.07-1.67-1.2-.1-4.44-.29-8.87-.42-13.31-.03-1.12,1.92-1.99,3.3-1.37.32.16.38.62.4,1.05.19,4.49.36,8.99.52,13.48.06,1.6-1.22,1.26-2.12,1.35Zm-.49-17.11c-1.47.05-1.71-.46-1.78-1.77-.14-2.48.21-4.98-.43-7.43,0,0,0,0,.01.01.38-2.34.1-4.69-.07-7.02-.14-1.91.99-1.77,2.23-1.93,1.58-.2,1.34.87,1.38,1.76.2,4.81.34,9.62.59,14.42.08,1.53-.47,1.89-1.94,1.94Zm-6.69-1.16c.05,1.24-.43,1.41-1.4,1.35-.55-.03-1.1-.02-1.65-.03-.74,0-1.04-.31-1.06-1.11-.12-5.31-.29-10.62-.44-15.93-.02-.71.24-1.16,1.07-1.1.82.06,1.65.06,2.42.08.46.29.62.68.63,1.15.13,5.2.21,10.4.44,15.6Zm-3.71,17.39c-.04-1.65.17-3.32-.32-4.94,0,0,0,0,.01.01.41-2.83-.06-5.66-.01-8.5.02-.95-.12-1.91,1.26-1.63,1.08.22,2.85-.85,2.9,1.51.09,4.48.25,8.96.39,13.45.03.89-.19,1.52-1.27,1.46-.49-.02-1,0-1.48.09-1.26.26-1.46-.41-1.48-1.46Zm1.21,2.33c.11,0,.22-.02.33-.03,2.75-.18,2.75-.18,2.82,2.62.11,3.87.23,7.75.34,11.62,0,.33-.02.66-.03.94-.12.51-.51.57-.89.64-2.68.51-3.27.06-3.34-2.66-.11-3.98-.13-7.97-.29-11.95-.04-.92.25-1.2,1.07-1.19Zm2.75,17.06c.99-.08.83.96.85,1.64.14,3.78.21,7.55.41,11.33.05,1.06-.33,1.34-1.27,1.43-2.9.28-2.9.31-2.99-2.6-.1-3.22-.16-6.45-.28-9.67-.02-.45.09-.97-.28-1.37.79-1.95,2.37-.66,3.56-.75Zm-3.14,27.07c.11,2.08-1.41,1.43-2.48,1.62-1.19.21-1.47-.22-1.46-1.41.01-3.45-.16-6.89-.23-10.34,0-.52.18-1.05.29-1.57,3.53.15,3.53.17,3.63,3.82.07,2.63.11,5.26.25,7.88Zm.16,6.63c.07,2.73.04,5.47.21,8.19.07,1.06-.28,1.4-1.22,1.45-.44.02-.88.05-1.31.13-1.22.26-1.51-.36-1.52-1.43-.02-3.5-.06-6.99-.15-10.49-.02-.69.04-1.44-.36-2.08q4.23-.11,4.34,4.23Zm0-16.87c-.04-1.11.44-1.52,1.56-1.56,2.6-.1,2.6-.15,2.88,1.87,0,0,0,0,0,0,.04,3.21,0,6.44.18,9.66.07,1.27-.37,1.55-1.44,1.54-.49,0-.99.05-1.48.1-.97.11-1.35-.21-1.36-1.28-.05-3.44-.21-6.89-.34-10.33Zm1.88,12.71c.05,0,.11,0,.17,0,2.58.02,2.52.03,2.71,2.67.14,1.94-.23,3.93.43,5.83.5-2.22.09-4.45,0-6.66-.06-1.59.61-1.86,1.9-1.83,1.17.03,2.44-.4,2.41,1.64-.04,3.16.1,6.33.32,9.48.09,1.36-.45,1.78-1.64,1.78-.27,0-.55.01-.82.08-1.63.41-2.04-.43-1.93-1.84.07-.92.18-1.84-.28-2.71-.37,1.07-.19,2.16-.1,3.24.1,1.09-.3,1.66-1.43,1.65-.33,0-.66.04-.98.12-1.5.34-1.99-.22-1.97-1.77.03-3.4-.09-6.8-.28-10.19-.07-1.23.36-1.61,1.48-1.48Zm.28,14.33c2.95-.14,2.92-.19,3.05,2.79.07,1.67-.17,3.36.27,5.01,0,0,0,0,0,0-.04.97-.18,1.97-.07,2.93.11.94-.29,1.18-1.08,1.2-.11,0-.22.03-.33.04-2.86.2-2.87.2-2.96-2.65-.09-2.63-.08-5.26-.25-7.88-.07-1.14.32-1.39,1.37-1.44Zm-1.12,28.07c.04,1.96.09,3.92.14,5.88,0,.27.04.53.06.68-.21.57-.56.62-.97.63-.71.03-1.42.11-2.13.18-.78.09-1.22-.09-1.23-1.03-.02-2.67-.15-5.34-.2-8-.01-.51.18-.89.82-1.03,2.85-.66,3.46-.21,3.52,2.69Zm-2.97,19.22c3.96.02,3.48-.63,3.53,3.08.02,1.53.05,3.07.16,4.6.05.72-.25,1.04-.89,1.11-.87.1-1.75.18-2.63.23-.38.02-.87.01-.89-.5-.11-2.67-.17-5.35-.25-8.01.2-.44.6-.51.97-.51Zm-.23,39.16c0-.9.34-1.11,1.1-1.23,3.51-.56,3.58-.53,3.7,2.93.01.33-.02.66-.01.98.11,3.61.11,3.57-3.47,3.43-.99-.04-1.2-.48-1.26-1.3-.06-.83.31-1.71-.3-2.47.65-.71.24-1.59.24-2.36Zm.24,19.47c.03-1.2.18-2.41.07-3.6-.11-1.22.45-1.51,1.48-1.53,3.9-.05,3.27-.99,3.44,3.2,0,.05-.02.11-.02.16.05,3.48-.13,3.63-3.66,3.69-1.52.03-1-1.21-1.31-1.93,0,0,0,0,0,0Zm.28,2.82c.18-.43,3.65-.79,4.34-.45.41.2.82,3.57.51,4.25-.17.37-3.41,1.06-4.02.85-.69-.24-1.29-3.55-.84-4.64Zm1,5.27c3.59-.71,3.97-.44,4.03,3.26.01.67.61,1.76-.36,2.01-1.35.35-2.81.47-4.22.14-.11-.03-.25-.25-.25-.39-.07-1.48-.12-2.95-.17-4.28.25-.55.56-.66.98-.74Zm-.3,6.22c1.31,0,2.62.06,3.73.1.77.24.69.75.74,1.16.4,3.52-.49,4.41-4.16,4.2-.43-.03-.77-.16-.78-.65-.04-1.36-.08-2.73-.09-4.09,0-.35.22-.71.56-.72Zm-.37,10.29c.15-.55.46-.71.96-.63,1.13.19,2.25.41,3.6.66.4.14.62.57.58,1.19-.04.61-.22,1.05-.91,1.15-.59.09-1.18.21-1.77.34-2.22.48-3.08-.48-2.46-2.72Zm1.94-1.71c-.42-.1-.86-.14-1.28-.27-.95-.28-.73-1.13-.74-1.78-.02-.73.63-.65,1.1-.54,1.41.31,3.07-.48,4.25.89-.76,2.27-.77,2.27-3.32,1.69Zm3.3-10.55c-.05-1.21-.04-2.41-.09-3.62-.01-.37.07-.74.43-.78,1.2-.11,2.41-.15,3.5-.21.48.27.68.53.69.98.03,1.26.12,2.51.17,3.77.02.53-.27.85-.78.88-.99.05-1.98.06-2.97.08-.74.01-.92-.51-.95-1.1Zm.12,2.52c.21-.38,3.52-.7,4.13-.4.4.2.79,3.44.49,4.07-.22.46-3.38.91-4.06.57-.36-.18-.83-3.74-.56-4.24Zm4.39,5.53c.76.66.33,1.63.35,2.47.02.7-.58.7-1.08.71-.77,0-1.54-.03-2.3-.05-1.62-.05-.96-1.51-1.42-2.28.58-.77,3.76-1.44,4.45-.84Zm-3.32,4.47c1.03.05,2.06.17,3.1.26.29.03.57.13.53.47-.02.17-.21.44-.36.47-1.17.22-2.36.38-3.27.53-.75-.16-.83-.52-.83-.93,0-.56.35-.81.83-.79Zm1.47,13.42c.49.05.99-.03,1.48-.06.86-.06,1.26.2,1.29,1.2.04,1.05-.17,2.15.34,3.16-.51,2.77.02,5.54.01,8.31,0,2.73.12,5.46.27,8.19.08,1.34-.44,1.83-1.75,1.92-3.54.26-2.93.64-3.06-2.7-.23-5.96-.31-11.92-.53-17.88-.05-1.48.3-2.3,1.94-2.13Zm-1.01,55.5c-.06.41-.24.77-.7.78-1.42.02-2.84.02-4.26,0-.26,0-.58-.12-.54-.47.03-.18.19-.44.36-.5,1.51-.55,3.1-.57,4.58-.62.45.18.61.44.56.81Zm-5.55,2.78c.04-.82.21-1.22,1.14-1.09,1.3.17,2.61.23,4.04.35.9.92.47,2.14.54,3.21.07.96-.81.83-1.45.84-.38,0-.77,0-1.15-.01-3.26-.04-3.27-.07-3.12-3.29Zm22.35,3.52c.06.82-.76.59-1.25.62-.6.04-1.2-.02-1.8-.05-2.02-.1-2.5-.77-2.05-2.78.11-.51.32-.81.88-.73,1.14.16,2.28.33,3.48.51,1.07.51.69,1.59.75,2.43Zm-1.2-3.75c-1.08-.1-2.16-.27-3.24-.4-.64-.08-.77-.48-.76-1.04.01-.76.57-.73,1.03-.67,1.08.14,2.14.36,3.22.55.49.12.77.41.72.93-.06.59-.54.66-.97.62Zm.91-4.11c.03.64-.24,1.13-.95,1.06-1.09-.11-2.17-.32-3.02-.45-.89-.21-1.11-.7-1.13-1.29-.2-5.81-.38-11.61-.59-17.42-.04-1.07.64-1.3,1.37-1.11,1.18.31,3.29-1.19,3.46.8.52,6.11.61,12.26.85,18.4Zm4.86-30.16c.04-1.04,1.1-.56,1.73-.45,1.64.28,2.45,1.33,2.57,2.97.11,1.48-.4,2.82-.88,4.17-.15.36-.31.71-.44,1.07-.28.76-.59,1.42-1.62,1.3-.63-.08-1.12-.3-1.08-.97.04-.76-.56-1.78.88-2.08.86-.18,1.01-1.13.98-1.9-.03-.74-.41-1.37-1.24-1.56-1.6-.37-.92-1.74-.89-2.56Zm-.28,7.84c.05.91-.38,1.14-1.15,1.15-.66,0-1.31.05-1.97.07-.71.02-1.67.46-1.8-.74-.09-.86-.37-1.91,1.05-2.11.49-.07.98-.39.97-.97,0-.7-.36-1.23-1.01-1.56-.9-.47-1.77-3.17-1.29-4.01.1-.17.31-.38.48-.39,1.25-.05,2.51-.05,3.31-.06,1.12.23,1.1.84,1.12,1.28.13,2.45.16,4.91.3,7.36Zm-.47-11.93c.02.38.04.76.07,1.37-1.31.58-2.72.21-4.07.32-.88.07-.9-.56-.92-1.22-.09-2.78-.21-5.57-.31-8.35-.14-3.66-.25-7.32-.46-10.98-.07-1.2.31-1.65,1.52-1.72,3.27-.2,3.26-.25,3.41,3.06.25,5.84.5,11.68.75,17.53Zm-1.23-29.68c-.09,1.29.09,2.55-.24,3.89-.24.98.48,2.21.8,3.33,0,0,0,0,0-.01-.63.77-3.87,1.33-4.69.8-.51-.33-.36-.88-.43-1.35-.05-.37.17-.65.59-.57.62.12,1.15.05,1.22-.68.07-.69-.16-1.28-.81-1.68-1.04-.65-1.77-3.69-1.21-4.77.24-.46.62-.41.98-.4.88.03,1.76.07,2.63.17.73.08,1.2.39,1.14,1.29Zm.62-16.71c-.46.27-.78-.2-1.14-.41-1.29,1.37-3.05.68-4.58,1.02-.34.08-.34-.43-.4-.76-.1-.6.16-1.27-.28-1.82.46-.9-.51-2.54,1.46-2.69.39-.03.19-.53-.17-.66-.45-.17-.91-.28-1.37-.41,0,0,0,0,0,0,.24-.78.15-1.6.06-2.4-.12-1.05.33-1.29,1.29-1.33,3.44-.15,3.45-.18,3.52,3.28.02.93.11,1.83.47,2.7.04-.37.07-.75.12-1.12.03-.23.2-.44.42-.36.16.05.38.33.36.45-.28,1.18.39,2.22.47,3.34.03.42.22.92-.23,1.19Zm-.24-7.82c.02.36.37.99-.36,1.03-.63.03-.54-.56-.56-.98-.15-3.4-.3-6.81-.46-10.43.81.35.76.81.79,1.24.2,3.05.41,6.1.59,9.15Zm-1.41-20.39c.23,2.83.45,5.66.7,8.7-1.17-.59-.56-1.65-1.06-2.24-.39.69.24,1.95-.66,2.15-1.18.27-2.49.1-3.73-.01-.68-.06-.38-.9-.73-1.29.35-.67.24-1.42.11-2.08-.29-1.5.39-1.93,1.72-2.03.47-.03,1.36.16,1.35-.55,0-.78-.9-.53-1.34-.46-1.59.24-2.03-.47-1.94-1.93.06-1.04.09-2.11-.11-3.12-.33-1.69.41-2.28,1.95-2.45.53-.06,1.57.1,1.51-.55-.07-.87-1.13-.51-1.64-.4-1.6.32-2.07-.31-2.03-1.8.04-1.31-.07-2.63-.16-3.94-.07-1,.3-1.51,1.35-1.6.84-.07,1.66-.31,2.75-.52-1.03-.98-2.02-.68-2.89-.63-.93.05-1.33-.24-1.36-1.14-.07-2.13-.14-4.26-.26-6.39-.03-.55.16-.89.66-.95,1.04-.13,2.08-.22,3.13-.25.9-.03.81.71.84,1.3.23,5.4.42,10.81.69,16.21.03.63-.34,1.45.47,1.92.82,1.25.34,2.71.65,4.05Zm-3.71-109.12c.4,9.67.83,19.34,1.14,29.02.57,17.5,1.06,35.01,1.59,52.51.03.97.07,1.94.11,2.98-.65-.17-.69-.73-.97-1.08.09.94-.34,1.22-1.26,1.22-3.28.03-3.28.06-3.46-3.12-.07-1.2-.03-2.41-.2-3.6-.15-1.1-.04-1.94,1.58-2.34-1.48-.4-1.77-1.09-1.75-2.18.04-1.85-.11-3.72-.25-5.57-.08-.97.24-1.44,1.23-1.51,3.78-.28,3.14-1.28,3.37,2.73.23,4.03.38,8.08.52,12.11.02.67.22,1.29.34,1.93.34-4.69-.3-9.35-.39-14.03-.05-2.4-.25-4.79-.32-7.19-.02-.46-.08-.86-.34-1.23-.32,1.25.06,2.5-.04,3.76-.06.67-.15.89-.96.79-3.52-.46-3.52-.41-3.63-4.06-.04-1.42-.08-2.84-.2-4.25-.08-.93.31-1.33,1.18-1.38.16-.01.33,0,.49-.02,2.45-.21,2.44-.21,2.88,2.25.08.42.25.83.38,1.24.12-4.26-.27-8.51-.41-12.76-.14-4.4-.47-8.79-.48-13.19,0-1.6-.14-3.12-.58-4.63-.04.27-.15.56-.1.81.31,1.73-.53,1.98-2.04,1.84-2.23-.2-2.25-.11-2.36-2.41-.12-2.68-.16-5.37-.34-8.05-.08-1.17.39-1.54,1.45-1.7,2.81-.41,2.79-.45,2.9,2.44.07,1.85.04,3.72.42,5.55.47-3.78-.05-7.55-.18-11.32-.26-7.5-.63-15-.95-22.5-.01-.27-.07-.55-.05-.82.03-.43,0-.98.61-.98.6,0,.63.49.65.95.14,2.58.31,5.16.41,7.74Zm-2.24-40.41c.53,9.65,1.06,19.3,1.57,28.95.02.43.41,1.11-.37,1.2-.8.09-.78-.67-.81-1.18-.15-2.73-.23-5.47-.37-8.2-.05-1.04-.2-2.07-.3-3.1-.48,3.66.07,7.31.22,10.96.05,1.39-.45,1.61-1.56,1.53-.44-.03-.88,0-1.31.03-.88.06-1.26-.27-1.31-1.22-.07-1.46.16-2.95-.38-4.37-.49,1.39-.2,2.8-.08,4.2.14,1.69-1.01,1.48-2.03,1.57-1.07.09-1.93.08-1.96-1.41-.06-3.77-.23-7.53-.35-11.3-.07-1.97,1.49-1.29,2.47-1.49,1.1-.23,1.29.32,1.4,1.37.23,2.37-.28,4.81.57,7.12.35-2.07.01-4.15-.07-6.22-.06-1.5-.14-2.74,1.77-2.81.03-.64-.38-.61-.67-.6-.94.03-1.24-.48-1.27-1.32-.17-4.54-.35-9.09-.54-13.63-.03-.82.3-1.25,1.16-1.21.16,0,.33-.03.49-.04,2.3-.19,2.34-.19,2.45,2.11.19,3.89.32,7.78.51,11.67.05.91.26,1.82.39,2.73.26-5.09-.39-10.15-.43-15.23,0-.48-.26-.98.29-1.35.61.22.51.77.54,1.24Zm-3.19-81.79c.63,10.04,1,20.1,1.31,30.15.5,16.09.91,32.17,1.74,48.25.02.44.16.87-.32,1.31-.9-.61-.33-1.74-.84-2.45-.07.49-.23.98-.19,1.45.07.74-.35.86-.89.85-.66,0-1.32-.08-1.98-.1-.79-.03-1.15-.36-1.18-1.22-.13-4.38-.29-8.76-.52-13.13-.06-1.19.28-1.75,1.51-1.72.42,0,.88-.02,1.23-.36.01-.49-.43-.55-.67-.52-2.11.32-2.21-.96-2.24-2.54-.11-4.71-.28-9.42-.55-14.12-.07-1.23.25-1.77,1.47-1.75,1,.02,2.45-.9,2.44,1.21,0,.32.13.64.19.96.46-3.55-.04-7.1-.18-10.64-.42-10.94-.9-21.89-1.35-32.83-.06-1.56-.08-3.13-.13-4.9,1.12.5,1.1,1.31,1.15,2.11Zm-1.51,3.17c.34,7.51.68,15.01.99,22.52.21,5.15.37,10.3.6,15.45.04,1,.24,1.86-1.24,1.9-2.35.06-2.53.02-2.6-1.8-.35-9.15-.68-18.3-1.02-27.45-.12-3.29-.24-6.58-.39-9.86-.1-2.16,1-3.01,3.04-2.29.74.29.6.97.63,1.53Zm-3.73-3.85c.83-.92,2.04-.34,2.97-.59.59.19.67.63.45.94-.74,1.05-1.97.7-2.98.79-.54.05-.72-.82-.44-1.14Zm.26,22.1c.03.76,0,1.5-1.12,1.34-1-.15-2.33.38-2.38-1.44-.1-4.06-.27-8.11-.41-12.16-.06-1.81-.12-3.62-.15-5.43-.03-1.58,1.26-2.47,3.08-1.81.16.07.25.47.26.94.23,6.19.48,12.38.72,18.56Zm-4.15-21.97c.64-1.16,1.76-.32,2.6-.53.63.31.96.89.67,1.35-.65,1.08-1.79.39-2.7.44-.63.03-.86-.76-.58-1.26Zm.18,21.55c.01.38-.02.77-.04,1.29-.79.62-1.82.33-2.75.44-.8.1-1.05-.5-1.07-1.16-.18-6.02-.35-12.05-.51-18.07-.05-2,1.5-1.2,2.47-1.41.96-.2,1.29.28,1.32,1.17.19,5.91.39,11.83.59,17.74Zm-4.52-21.55c.21-.53,2.46-.88,3.25-.54.68.29.56.9.5,1.41-.04.39-2.66.8-3.21.51-.58-.31-.59-.86-.54-1.38Zm-.34,3.86c.17,6.19.34,12.37.56,18.56.03.77-.29,1-.9,1.07-.71.09-1.42.15-2.14.17-1.57.06-.69-1.43-1.24-2.02.38-3.27-.07-6.53-.08-9.8,0-2.46-.09-4.93-.21-7.39-.06-1.2.21-1.92,1.61-1.67.43.07.88.02,1.32-.02.8-.06,1.06.35,1.08,1.09Zm-4.04-3.76c.25-.51,2.84-.9,3.44-.54.62.38.57,1.02.41,1.6-.11.4-3.01.83-3.43.5-.53-.42-.51-1.03-.42-1.57Zm-3.36.18c.35-1.31,1.51-.36,2.15-.75.89.42.83,1.24.64,1.75-.4,1.04-1.5.81-2.28.66-.89-.17-.66-1.08-.51-1.66Zm-.02,4.06c.02-.81-.11-1.66,1.23-1.63,1.22.03,1.73.33,1.75,1.67.06,5.25.23,10.5.4,15.75.02.5-.18,1.09.28,1.52-.38.93.06,2.46-1.62,2.61,1.39.02,1.53.91,1.52,2.09-.01,2.61.13,5.23.18,7.84.01.68.21,1.28.45,1.89-.06-3.39-.05-6.79-.21-10.17-.06-1.41.68-1.59,1.7-1.51.95.08,2.36-.64,2.4,1.27.14,5.63.25,11.26.5,16.89.06,1.3-.3,1.72-1.51,1.6-.38-.04-.77-.05-1.15,0-1.03.12-1.49-.17-1.44-1.35.07-1.74-.12-3.49-.16-5.24,0-.37-.18-.61-.37-.88-.2,1.97-.05,3.94.08,5.91.07,1.13-.4,1.59-1.53,1.6-1.05,0-1.78-.1-1.8-1.46-.05-5.75-.18-11.49-.29-17.23-.11-5.47-.23-10.93-.36-16.4,0-.13-.12-.25-.21-.38.47-1.44.12-2.91.15-4.37Zm-.87,5.18c-.15-1.83-.31-3.62-.42-5.42-.1-1.57-.15-3.14-.25-4.71-.03-.43-.24-1.04.31-1.11.69-.09.44.55.46.96.12,2.8.27,5.6.38,8.4.02.37,0,.73.21,1.05-.17.26-.16.64-.68.83Zm.74,91.24c-.09-6.43-.18-12.86-.27-19.3.02-6.12.03-12.25.05-18.37.01-5.53.03-11.05.05-16.58,0-.4-.15-.92.49-.97.1,0,.22.31.33.48.32-1.76,1.67-1,2.64-1.03,1.15-.04.88.99.9,1.58.18,5.13.28,10.26.45,15.38.04,1.22-.65,1.28-1.58,1.3-.93.02-1.82.16-1.84-1.18-.04-1.97-.11-3.93-.13-5.9,0-.45,0-.87-.35-1.2-.05,4.34-.25,8.69.35,13.02,0,0,0-.01-.02-.02-.48,2.82,0,5.65-.09,8.47-.03,1.09.05,2.19.08,3.28.02.93-.29,1.61-1.33,1.72,1.31-.07,1.24,1.07,1.59,1.83-.38,3.75-.05,7.5.06,11.25.04,1.48-.56,3.03.33,4.45,1.2-1.14,3.26-.9,4.19.47-.64,1.69-.12,3.42-.14,5.12-.03,2.35,0,4.71.18,7.05.11,1.29-.23,1.82-1.52,1.91-.66.04-1.39,0-1.95.5-.07-.42-.21-.79-.58-1.04-.46,2.72.03,5.46-.1,8.19-.11,2.23.42,4.47-.17,6.7-.07.27.17.51.53.31,0,0,0,0,0,0-.4,3.86.01,7.72.08,11.59.02,1.45-.79,3.01.36,4.37.38-2.18,2.11-1.26,3.28-1.33,1.31-.07.88,1.08.91,1.83.1,2.88.19,5.77.3,8.65.04.95-.32,1.55-1.32,1.37-1.01-.18-2.37.81-2.97-.82-1.61,1.18-.03,2.35.02,3.53-.07-1.35.43-2.04,1.92-1.86,1.29.16,2.61-.09,2.51,1.99-.12,2.67.01,5.36.15,8.03.06,1.07-.24,1.56-1.32,1.56-.49,0-.99.07-1.47.17-1.11.21-1.46-.22-1.44-1.33.05-2.02-.01-4.05-.08-6.07-.02-.7-.2-1.4-.31-2.1-.56,2.44-.1,4.91-.11,7.36-.01,3.87.16,7.74.23,11.62.07,3.57.22,7.14.11,10.71-.1,3.36.51,6.7.25,10.04-.15,1.99-.06,3.9.4,5.82,0-.02-.01-.04-.02-.06-.55,1.44-.12,2.93-.16,4.39-.02.79,0,1.57-1.31,1.85,1.23.48,1.4,1.27,1.37,2.26-.05,1.8.25,3.64.02,5.41-.46,3.5.74,6.94.04,10.48-.2,1.01.03,2.52.46,3.74,0,0,0-.01-.01-.02-.53,1.36.55,3.02-.79,4.24,1.27.73.33,2.2,1.03,3.12-.2,1.61-.87,3.37-.44,4.79.51,1.67-.3,3.44.68,4.96-.52.66-.42,1.51-.4,2.21.16,4.01.2,8.02.22,12.03.01,2.23.15,4.48.24,6.71.02.47.31,1.13-.42,1.17-.69.04-.57-.65-.59-1.13-.22-5.71-.45-11.43-.67-17.14-.61-15.99-1.33-31.98-1.56-47.98-.23-16.1-.38-32.2-.59-48.3-.25-18.42-.53-36.85-.79-55.27Zm-.44,136.62c.19-.27.38-.54.94-.63.06.42.13.74.15,1.05.02.47.26,1.04-.29,1.33-.36.2-.56-.22-.78-.43-.46-.43-.33-.88-.02-1.32Zm-3.29,3.71c.41-.25.74-.07.97.3.43.7.85,1.41,1.28,2.11.28.46.77.88,1.2.66.66-.35.04-.88-.16-1.22-.44-.75-1-1.44-1.53-2.13-.31-.41-.65-.81-.13-1.28.61-.54.91-.01,1.36.34,2.44,1.95,1.55,4.63,1.54,7.16-1.55-1.68-2.92-3.44-4.55-4.98-.29-.28-.43-.68.03-.97Zm-3.69,2.23c.51-.27.95-.1,1.32.31,1.17,1.31,2.32,2.64,3.5,3.93.68.74,1.28,1.59,2.64,2.3-1.36-2.34-3.14-3.74-4.54-5.45-.28-.34-.6-.64-.91-.95-.33-.32-.71-.64-.19-1.07.43-.35.84-.13,1.14.24.9,1.11,1.78,2.23,2.68,3.34.55.68,1,1.62,1.72,1.95,1.82.85,1.18,2.42,1.31,3.72.08.75-.63.52-.89.18-1.32-1.76-3.32-2.59-4.97-3.87-1.16-.9-1.82-2.66-2.99-3.83-.29-.29-.14-.65.18-.82Zm-7.2,6.71c-1.47-1.71-3.07-3.3-4.62-4.95-.25-.26-.75-.46-.46-.92.28-.44.66-.07,1.02.02,1.66.41,3.21,1,4.42,2.32-.09-.19-.21-.37-.27-.57-.13-.39-1.12-.51-.44-1.1.47-.41,1.05-.21,1.48.23.79.8,1.26,1.89,2.39,2.64.07-1.07-.72-1.46-1.04-2.1-.14-.27-.55-.5-.2-.83.34-.32.69-.15,1.01.15.67.62,1.07,1.56,2.14,1.81.24-.72-.48-.92-.67-1.36-.15-.35-.86-.55-.33-1.06.44-.42.96-.27,1.32.13.88.96,1.71,1.97,2.7,3.11-1.08.08-1.93.11-2.78.2-1.55.18-2.83.89-3.76,2.15-.61.82-1.1,1.06-1.91.12Zm14.13,120.55c-.71,2.81-.61,2.65-3.44,2.46-7.29-.49-11.54-4.79-14.36-11.02-3.24-7.15-3.43-14.71-2.92-22.35.65-9.72,3.56-18.82,7.96-27.43,5.49-10.72,6.45-21.89,4.27-33.58-1.13-6.05-2.04-12.16-1.76-18.37.11-2.54.29-5.08,1.11-7.49,1.27-3.69,3.58-4.27,6.71-1.94,1.32.98,2.23,2.45,3.86,3.04.58.21.48.84.49,1.31.14,5.16.85,10.3.66,15.47-.03.92.55,1.48,1.46,1.39.95-.09,1.19.32,1.12,1.13,0,.05-.02.11-.02.16q.17,2.86-2.33,4.08c-4.29,2.09-4.78,7.18-.8,10.3-.32-.93-.62-1.68-.85-2.46-.77-2.63.17-5.05,2.5-6.37.46-.26,1.19-.95,1.48-.09.26.76.71,1.88-.22,2.53-1.89,1.33-1.93,1.86.03,3.3.62.45.42,1.07.45,1.65.09,1.98-.11,3.98.45,5.92.44-3.72.03-7.45-.02-11.17-.04-3.05,1.12-4.18,4.28-4.06.54.02.69.25.72.66.06.76.08,1.53.09,2.3.01.64,0,1.19-.97,1.06-.83-.11-1.23.53-1.14,1.26.08.66.24,1.52,1.22,1.42,1.22-.12.98.81,1.06,1.43.1.8-.34,1.2-1.16,1.26-.91.07-1.84.07-2.71.48.11.08.2.2.28.2,3.55-.18,3.61-.18,3.73,3.27.21,6.03.32,12.05.5,18.08.03,1-.28,1.54-1.36,1.6-1.2.06-2.63.71-3.53.26-1.11-.55-.31-2.18-.52-3.32-.05-.25-.2-.49-.3-.73-.6,2.75-1.6,4.43-3.83,6.47-2.24,2.05-2.58,5.13-.78,8.05.38-.99.04-1.91.07-2.8.08-2.26.92-4.05,2.93-5.19.95-.54,1.69-.41,1.5.82-.14.88.94,2.33-1.2,2.57-.97.11-.38,1.38.18,1.63,1.27.57,1.19,1.56,1.21,2.6.09,4.87.19,9.74.28,14.61,0,.26-.05.53.16.73-.03.09-.07.2-.06.3.37,2.86-.33,4.88-3.24,6.36-2.31,1.18-2.58,5.18-1.14,7.47.23.36.5.65.91.58.55-.09.41-.6.35-.94-.19-1.15-.18-2.3-.05-3.45.08-.67.26-1.31.71-1.82.39-.43.73-1.03,1.5-.74.7.26,1.03.74,1.04,1.5.11,6.03.24,12.06.34,18.09,0,.51.03,1.15-.8,1.19-3.98.21-5.3,3.08-6.11,6.31Zm44.71,10.69c-10.14,1.37-20.31,2.58-30.51,3.44-3.78.32-7.59.41-11.29,1.39-.44.12-.96.33-1.03-.54-.36-4.44-.95-8.87-.34-13.33.18-1.32.55-2.59,1.11-3.8.3-.65.64-1.31,1.28-1.69.8-.47,1.68-1.15,2.59-.73.79.37.4,1.37.44,2.11.02.49.03.98.04,1.48.01,2.25-.4,2.64-2.72,2.33-1.38-.18-1.96.32-1.91,1.7.04,1.03.22,2.01.96,2.73.69.67,1.53,1.33,2.22-.07.19-.38.46-.62.91-.54.62.1.57.61.58,1.03.03,1.71.03,3.42.43,5.13.04-1.62.13-3.23.1-4.85-.02-.93.23-1.44,1.24-1.54,1.15-.11,2.29-.33,3.42-.54.87-.16,1.19.12,1.17,1.03-.05,1.88,0,3.75.19,5.63.43-1.72.27-3.46.25-5.19,0-1.2.31-1.83,1.73-1.99,3.38-.38,3.36-.48,3.26,2.92-.03.95-.36,1.92.38,2.84.04-1.67.09-3.34.1-5.01,0-.46-.03-1.03.45-1.13,1.45-.29,2.92-.53,4.39-.63.64-.04.56.74.6,1.19.13,1.57.18,3.14.64,4.72-.03-1.5.07-3.01-.13-4.48-.17-1.31.23-1.74,1.5-1.92,3.45-.47,3.44-.53,3.58,2.98.03.79.06,1.58.23,2.37.45-1.37.29-2.77.22-4.15-.05-1.17.19-1.88,1.59-1.86,1.3.02,2.59-.5,3.9-.09.52-.27,1.05-.48,1.66-.56,2.54-.32,2.55-.35,2.74,2.12.07.88.39,1.6,1.33,1.54.98-.06.65-.94.67-1.56.01-.39,0-.77.04-1.15.07-.68-.36-1.72,1-1.54.98.13,2.02-.03,1.96,1.68-.08,2.24.22,4.5.49,6.74.15,1.24-.31,1.61-1.47,1.76Zm16.05.59c-.19.34-.52.35-.85.42-2.22.48-4.18,1.38-5.42,3.43-.51.84-.86.58-1.47-.03-1.34-1.34-2.19-3.35-4.49-3.51-.5-.04-.48-.55-.46-.92.13-2.17-.33-4.28-.58-6.41-.12-1.06.19-1.16,1.12-1.2,1.47-.05,2.53.38,3.64,1.43,2.44,2.3,4.92,4.59,7.97,6.11.27.13.66.22.54.69Zm.9-1.15c-2.72-2.12-5.76-3.82-8.4-6.06-.28-.24-.77-.4-.67-.84.13-.56.68-.39,1.1-.45,1.42-.23,2.6.09,3.83.95,3.41,2.39,6.73,4.9,9.88,7.68-2.05.07-3.95.12-5.73-1.27Zm12.15,3.18c-.21.34-.6.1-.9-.02-1.16-.46-2.28-.92-3.22-1.87-2.6-2.61-5.58-4.77-8.75-6.67-.46-.28-1.02-.44-1.38-1.4,2.3.43,4.02,1.55,5.62,2.68,2.82,1.99,5.46,4.23,8.16,6.38.29.23.74.47.46.9Z"/>
      <path d="m335.35,588.49c-2.62-9.79-7.41-18.36-15.28-24.96-5.53-4.64-11.96-7.84-18.39-11.01-7.11-3.52-14.28-6.93-20.7-11.69-4.07-3.02-7.6-6.5-10.03-11.02-.61-1.13-.42-1.72.64-2.4,1.22-.77,2.38-1.63,3.53-2.5-.24-.59-.43-1.21-.57-1.83-1.18.93-2.38,1.84-3.61,2.72-1.05.75-1.47.56-1.77-.67-.62-2.6-.72-5.23-.66-7.87,0-.32,0-.71.35-.86.4-.17.55.23.77.45.79.81,1.59,1.62,2.38,2.43.11-.99-.5-1.54-1.05-2.02-2.03-1.77-2.34-3.87-1.65-6.38.56-2.03.43-2.05,2.46-1.64,1.41.29,2.84.3,4.27.2.41-.03,1.03.14,1.08-.46.06-.6-.59-.54-.98-.62-2.32-.47-4.64-.93-6.97-1.34-3.62-.64-6.92-2.19-10.29-3.55-.97-.39-1.93-.8-3.31-1.38.91,1.43,2.03,1.76,3,2.21,2.7,1.25,5.45,2.4,8.17,3.59.45.2,1.05.35.79,1.02-.33.85-.35,1.91-1.2,2.44-.3.19-.65-.31-.89-.6-.72-.9-1.41-1.83-2.15-2.71-.3-.36-.76-.88-1.23-.46-.42.38.11.79.38,1.11.99,1.18,2.01,2.33,3.01,3.51.51.6.53,4.09-.04,4.53-.63.48-.81-.24-1.1-.57-.82-.93-1.63-1.87-2.44-2.81.11.49.2.98.27,1.47.8.89,1.6,1.78,2.4,2.67.53.6.79,1.25.79,2.09,0,2.49.31,4.96,1.15,7.31.4,1.11.11,1.64-.91,2.21-.24.13-.48.25-.72.39.22.51.41,1.03.59,1.57.28-.15.57-.29.85-.44,1-.54,1.51-.47,2.05.6.62,1.22,1.43,2.35,2.25,3.45,4.8,6.36,11.4,10.48,18.22,14.22,6.47,3.55,13.14,6.73,19.67,10.19,3.75,1.99,7.55,4.04,10.45,7.17,13.51,14.53,18.03,31.38,11.48,50.32-4.04,11.7-12.34,19.49-24.75,22.34-1.4.32-2.82.54-4.19.93-2.04.58-4.22.81-5.94,2.26l3.36,1.4c2.64-1.18,5.49-1.58,8.28-2.16,12.24-2.57,20.47-10.17,25.74-21.07,4.91-10.18,5.32-20.94,2.42-31.77Z"/>
      <path d="m176.04,381.63c.33-.39-.09-.69-.31-.99-2.68-3.66-6.02-6.71-9.15-9.96-1.92-1.99-3.83-3.98-5.75-5.98.07.7.15,1.39.22,2.09,3.75,3.95,7.66,7.76,11.05,12.04.82,1.04,1.75,1.98,2.91,2.66.3.18.7.52,1.03.13Z"/>
      <path d="m240.78,491.66c.79,1.82,2.21,2.94,3.45,4.17.96.95,1.9,1.92,2.85,2.87.62.12,1.25.26,1.87.44-1.93-2.04-3.87-4.08-5.81-6.12-.59-.62-1.17-1.31-2.36-1.36Z"/>
      <path d="m190.21,92.55c-.31-2.77-.65-5.54-.93-8.32-.09-.95-.23-1.41-1.38-.98-1.77.66-2.71.2-3.66-1.48-.73-1.3-.97-2.69-.61-4.14.35-1.38.9-2.63,2.53-2.93,1.46-.27,3.49.79,4.44,2.33.82,1.33,1.03,2.81,0,4-.92,1.06-.96,2.09-.8,3.33.28,2.23.45,4.47.69,6.7.06.54.27,1.09-.31,1.49,0,0,.05-.01.05-.01Zm-3.79-15.15c1.24.21,1.68.94,1.61,1.9-.08,1.06-.92,1.03-1.72.98-.34-.02-.81-.35-.98.2-.14.42-.04.87.25,1.24.3.37.67.25,1.05.14,1.73-.5,2.89-2.55,2.4-4.26-.29-1.03-1.52-1.66-2.48-1.27-.31.12-.63.27-.65.65-.03.51.4.4.52.42Z"/>
      <path d="m209.96,67.99c-.9-.97-.46-2.18-.5-3.26-.66-15.61-1.26-31.21-1.85-46.82-.04-1.01.02-1.85-1.38-1.84-.54,0-1.06-.45-.69-1.17.21-.41.47-.76-.1-1.1-.29-.17-.27-.46-.07-.71.26-.33.56-.31.84-.03.38.38.74.47,1.11,0,.29-.38.39-.81.1-1.22-.27-.38-.58-.72-.08-1.11.5-.4.95-.08,1.35.2,1.01.71,1.42,1.9.67,2.72-1.66,1.81-1.26,3.88-1.18,5.91.59,15.72,1.22,31.44,1.84,47.16.02.43-.05.87-.08,1.3,0,0,.04-.02.04-.02Z"/>
      <path d="m196.79,56.45c-.85-.24-1.6.29-2.41.29-.55,0-1.21-.07-1.37-.69-.18-.71.57-.65.97-.87.39-.21.81-.34,1.19-.56.86-.5,1.62-1.14,1.03-2.24-.56-1.06-1.54-1.54-2.76-1.35-.48.07-.88.38-.77.89.13.61.62.18.95.19.16,0,.33-.02.49-.03.67-.06,1.36.11,1.35.84,0,.76-.68,1.05-1.42.97-.48-.05-1.02-.59-1.18.45-.1.6-.56.26-.85-.01-.89-.84-1.44-2.98-.89-3.81.82-1.25,2.04-1.05,3.26-.76.87.21,1.67.59,2.39,1.1,1.93,1.36,2.1,2.86.58,4.65-.24.29-.41.65-.6.97l.04-.02Z"/>
      <path d="m196.75,56.47c.68,1.66.42,3.42.51,5.14.37,7.53.7,15.06,1.05,22.59.03.55.16,1.09-.22,1.58,0,0,.05-.02.05-.02-.68-2.6-.44-5.28-.59-7.93-.37-6.37-.66-12.74-.94-19.12-.03-.74-.16-1.54.19-2.27,0,0-.04.02-.04.02Z"/>
      <path d="m210.07,76.04c-.31-2.68-.77-5.36-.11-8.05,0,0-.05.02-.04.02.24,2.68.74,5.35.11,8.05,0,0,.04-.01.04-.01Z"/>
      <path d="m197,38.88c.55-.45,1.11-.81,1.81-.53.48.19.65.63.32,1.06-.39.5-.95.76-1.59.51-.46-.18-.62-.57-.54-1.04Z"/>
      <path d="m276.59,476.91c-.46-3.13-.82-6.27-1.05-9.43-1.01,2-1.22,4.54-.39,6.85.37,1.03.86,1.87,1.44,2.58Z"/>
      <path d="m221.23,336.5c-.69-3.1-.4-6.28-.64-9.41-.02-.23.21-.48.33-.73.82,1.25.34,2.71.65,4.05-.65,2,.09,4.08-.34,6.09Z"/>
      <path d="m186.66,541.13c-.76.23-.91-.29-1.18-.59-6.95-7.71-12.97-16.11-18.43-24.92-10.43-16.81-19.83-34.19-28.76-51.84-.89-1.77-1.76-3.55-2.61-5.34-.13-.27-.43-.62-.13-.89.32-.29.74-.14,1.08.06.9.53,1.33,1.42,1.78,2.31,9.56,18.73,19.17,37.44,30.33,55.3,5.25,8.4,10.85,16.58,16.9,24.43.35.46.67.95,1.03,1.47Z"/>
      <path d="m225.18,541.26c-1.15-.04-1.32-.82-1.68-1.3-7.46-10.19-13.79-21.1-20.26-31.93-3.22-5.39-6.53-10.72-9.79-16.09-.23-.38-.89-.79-.43-1.23.48-.45,1.02.04,1.45.38.74.6,1.26,1.37,1.77,2.16,8.18,12.82,15.53,26.13,23.41,39.13,1.76,2.91,3.6,5.78,5.53,8.87Z"/>
      <path d="m200.1,493.65c.77.35,1.3,1,1.71,1.71,5.34,9.22,11.96,17.55,18.11,26.21,3.38,4.76,6.77,9.5,9.78,14.51.17.28.37.55.51.85.14.28.47.63.16.88-.46.38-.66-.15-.86-.43-2.09-2.9-4.17-5.82-6.26-8.72-7.09-9.82-14.19-19.63-21.27-29.45-1.06-1.48-1.99-3.04-2.75-4.7-.14-.31-.33-.62-.06-.91.29-.32.6-.02.93.05Z"/>
      <path d="m234.39,538.92c-10.66-14.29-19.36-29.84-29.13-45.21,1.98,0,2.63,1.04,3.23,2.02,1.93,3.15,3.79,6.33,5.7,9.49,6.69,11.07,13.27,22.21,20.53,32.94.08.12.1.28.15.43-.16.11-.32.23-.47.34Z"/>
      <path d="m240.94,535.44c-2.96-3.67-5.92-7.34-8.87-11.02-7.56-9.39-14.76-19.05-21.91-28.75-.85-1.15-1.55-2.41-2.31-3.62-.2-.32-.55-.71-.2-1.03.44-.4.8.06,1.1.35.39.38.78.79,1.07,1.24,7.93,12.06,17.06,23.24,25.7,34.77,1.94,2.59,3.84,5.21,5.76,7.81-.11.08-.23.17-.34.25Z"/>
      <path d="m155.72,538.14c-12.22-14.35-21.5-30.66-31.42-46.53,11.14,15.07,20.42,31.4,31.42,46.53Z"/>
      <path d="m257.61,526.5c-.75.26-.99-.24-1.29-.59-8.11-9.63-16.23-19.25-24.33-28.9-.77-.92-1.43-1.95-2.1-2.96-.16-.23-.47-.57-.14-.87.27-.25.65-.15.92.05.44.32.95.61,1.26,1.04,5.08,7.06,10.94,13.49,16.39,20.25,3.16,3.91,6.34,7.81,9.28,11.97Z"/>
      <path d="m140.07,526.59c-.87.08-1.33-.39-1.78-.88-2.63-2.94-5.27-5.87-7.88-8.83-.3-.34-.99-.78-.55-1.19.54-.52.9.23,1.24.6,2.69,2.88,5.39,5.76,8.06,8.67.39.42.9.82.92,1.64Z"/>
      <path d="m248.63,487.12c-.77-.3-1.33-.73-.92-1.61.39-.84,1.13-1.06,1.91-.63.72.4,1.47,1.08,1.12,1.95-.43,1.08-1.38.44-2.11.28Z"/>
      <path d="m266.34,450c3.12,1.37,5.1,4.38,5.06,7.66-.04,2.78-3.32,6.78-6.02,7.38-.62.14-1.22.1-1.8-.06-3.7-1.05-6.88-5.33-6.85-9.18.03-4.82,5.01-7.83,9.61-5.8Zm2.03,10.37c.49-1.28.81-2.57-.39-3.64-1.2-1.07-3.41-1.15-4.8-.23-1.33.88-1.94,2.79-1.47,4.4.18.63.44.88,1.03.48,1-.68,1.7-.03,1.97.72.72,2.03,1.53.99,2.39.2.58-.54.91-1.23,1.27-1.92Zm-10.17-2.93c.51-.21.49-.59.61-.88.96-2.44,2.78-3.56,5.39-3.34,1.29.11,2.46.49,3.54,1.21.28.19.58.66.97.26.33-.34.02-.71-.14-1.05-1.16-2.37-3.99-3.34-6.79-2.33-2.93,1.06-4.29,3.35-3.57,6.12Z"/>
      <path d="m247.6,447.35c1.37-2.33-.1-5.33-2.85-5.78-2.7-.44-5.27.11-7.6,1.55-1.33.82-2.09,2.05-2.11,3.7-.01,1.42-2.52,2.7-3.75,1.93-.53-.33-.92-.85-.91-1.5.02-.84.78-1.18,1.37-1.18,1.75,0,2.72-.62,2.91-2.47.08-.83.92-1.39,1.6-1.81,3.43-2.1,7.05-2.42,10.72-.73,2.6,1.2,3.68,4.35,2.67,7.55-.48,1.51-1.11,2.98-1.78,4.43-.79,1.72-2.45,2.17-4.04,1.93-4.01-.59-6.87-2.24-7.39-6.84-.23-2.03.49-3.71,2.31-4.75,1.92-1.09,3.86-1.16,5.75.14,1.4.96,2.15,2.45,3.08,3.83Zm-8.62,2.26c-.21.74-.69,1.71,1.1,1.63.84-.04,1.54.51,1.84,1.41.61,1.86,2.64,2.46,4.15,1.23,1.72-1.4,1.76-4.38.08-6.41-1.52-1.84-3.62-1.98-5.47-.34-.7.62-1.27,1.37-1.7,2.48Zm-1.12-1.14c.39-.3.59-.4.71-.56,1.2-1.66,2.56-2.99,4.85-2.81.68.05.51-.44.23-.75-.48-.52-1.14-.62-1.81-.61-1.98.04-3.78,2.07-3.98,4.72Z"/>
      <path d="m226.24,366.89c.72-.71,1.44-1.4,2.47-.85.79.42,1.33,1.31.81,2.03-.43.59-1.35,1.32-2.2.97-.79-.33-1.25-1.18-1.08-2.15Z"/>
      <path d="m225.64,440.22c-.67-.66-.39-1.53-.42-2.29-.21-4.19-.37-8.39-.56-12.58-.02-.51.05-.98.22-1.45.52.86.28,1.82.31,2.73.16,4.53.58,9.05.45,13.59Z"/>
      <path d="m236.61,462.68c1.02.42,1.44,1.35,1.13,2.15-.36.93-1.44.6-2.19.36-.95-.31-1.22-1.21-.9-2.01.35-.88,1.22-.75,1.97-.5Z"/>
      <path d="m233.22,377.79c.57.55,1.49.94,1.1,1.95-.28.71-.98.95-1.61.54-.6-.39-1.42-.84-1.09-1.77.24-.68.87-.9,1.6-.72Z"/>
      <path d="m266.41,421.59c.78.34,1.16.95.9,1.61-.37.93-1.47.79-2.13.69-.54-.08-.72-1.1-.49-1.71.3-.82,1.07-.77,1.72-.59Z"/>
      <path d="m196.43,390.7c.55,3.13.26,6.29.37,9.44.05,1.57.36,3.16-.13,4.72-.6-3.13-.27-6.3-.38-9.45-.06-1.56-.43-3.16.14-4.71Z"/>
      <path d="m172.92,440.5c-.59-.29-1.25-.62-.89-1.35.37-.74,1.18-1.07,1.98-.77.95.35.48,1.35.39,1.87-.14.86-.95.33-1.48.24Z"/>
      <path d="m183.72,397.69c.34-.78.8-1.23,1.47-.91.73.36.9,1.12.63,1.84-.26.68-.88.78-1.52.52-.8-.32-.84-.92-.58-1.46Z"/>
      <path d="m184.83,468.62c-.28.44-.8.73-1.43.46-.54-.24-.83-.75-.44-1.32.36-.53.89-.82,1.53-.48.48.26.71.66.33,1.34Z"/>
      <path d="m184.31,351.34c.52.21.81.6.53,1.03-.41.62-1.15.64-1.79.44-.41-.13-.8-.59-.5-1.04.42-.63,1.14-.51,1.76-.44Z"/>
      <path d="m185.27,381.13c.55.34.92.89.86,1.58-.04.5-.54.56-.88.37-.64-.35-1.16-.89-1-1.68.09-.42.56-.44,1.02-.27Z"/>
      <path d="m131.47,337.94c2.41,1.72,4.31,3.9,6.25,6.06,10.15,11.35,20.62,22.42,30.31,34.19,1.85,2.25,3.69,4.51,5.48,6.81.25.31,1.06.64.48,1.15-.46.41-.9-.17-1.21-.54-2.64-3.02-5.31-6.02-7.9-9.09-9.84-11.63-19.99-22.99-30.3-34.2-1.22-1.32-2.4-2.68-3.11-4.38Z"/>
      <path d="m226.84,470.78c.86,1.95.38,4.01.57,6.01-.43-1.99-.85-3.98-.52-6.02,0,0-.04.02-.04.02Z"/>
      <path d="m192.78,197.44c.55,3.13.27,6.29.36,9.44.04,1.57.39,3.16-.12,4.71-.6-3.07-.29-6.18-.4-9.27-.06-1.62-.39-3.27.16-4.88Z"/>
      <path d="m193.67,242.6c.38,3.27.36,6.56.24,9.84-.66-.75-.37-1.69-.37-2.51.03-2.44-.52-4.9.13-7.33Z"/>
      <path d="m213.22,148.44c.54,4.27.45,8.58.7,12.86.12,2.01.16,4.02.24,6.04-.85-.73-.48-1.72-.52-2.6-.23-4.9-.43-9.81-.67-14.71-.03-.57-.03-1.09.25-1.59Z"/>
      <path d="m211.69,224.39c-.53-1.83-.55-3.69-.24-5.55.52,1.83.56,3.69.24,5.55Z"/>
      <path d="m238.91,473.69c2.35,1.33,4.45,2.98,6.12,5.13-2.68-.92-4.3-3.15-6.12-5.13Z"/>
      <path d="m192.07,152.4c-.78-.84-.37-1.85-.41-2.8-.06-1.58-.36-3.16.1-4.73.52,2.49.31,5.01.31,7.52Z"/>
      <path d="m205.06,247.02c-.72-.29-1.2-.69-.9-1.5.29-.79.92-.91,1.6-.64.85.34,1.13,1.07.81,1.88-.32.79-.98.44-1.51.27Z"/>
      <path d="m207.84,310.83c.64.37,1.37.7.88,1.61-.33.63-.95,1.05-1.61.71-.79-.4-1.09-1.29-.81-2.09.27-.76,1-.32,1.53-.23Z"/>
      <path d="m207.78,329.57c-.78-.27-1.28-.66-1.12-1.35.11-.49.66-.62,1.06-.34.51.35,1.22.72,1,1.49-.18.64-.72.18-.95.19Z"/>
      <path d="m208.53,343.42c.49.26,1.07.75.86,1.45-.26.88-1.04.31-1.55.22-.66-.12-.8-.7-.62-1.29.18-.62.64-.67,1.31-.38Z"/>
      <path d="m208.92,356.58c.49.33,1.07.77.74,1.41-.27.52-1.07.71-1.58.55-.72-.21-.6-1-.42-1.55.17-.56.71-.6,1.27-.41Z"/>
    </g>
    <text class="cls-1" transform="translate(1.29 276.16)"><tspan class="cls-4" x="0" y="0">M</tspan><tspan class="cls-7" x="73.14" y="0">ock </tspan><tspan class="cls-6" x="209.62" y="0"></tspan><tspan class="cls-5" x="227.12" y="0">n Roll</tspan></text>
  </g>
  <g id="Layer_2" data-name="Layer 2">
    <text class="cls-3" transform="translate(88.6 514.88)"><tspan x="0" y="0">{</tspan></text>
    <text class="cls-2" transform="translate(313.53 520.72) rotate(-180) scale(.91 -1)"><tspan x="0" y="0">{</tspan></text>
  </g>
</svg>